<svg width="567" height="208" viewBox="0 0 567 208" fill="none" xmlns="http://www.w3.org/2000/svg">
<g clip-path="url(#clip0_336_9121)">
<path opacity="0.03" d="M338.697 -212.76C340.1 -212.259 341.568 -211.991 343.016 -211.646C346.636 -210.754 350.246 -209.8 353.811 -208.701C420.499 -188.816 471.911 -130.918 485.263 -62.5143C494.344 -17.6678 486.818 30.4658 464.577 70.5464C412.946 164.528 293.981 199.886 198.608 151.678C96.7399 100.842 56.9203 -25.5168 113.917 -124.597C145.704 -180.931 207.558 -218.968 271.896 -221.617C294.414 -222.737 317.331 -219.663 338.699 -212.76L338.697 -212.76ZM330.671 -182.806C304.44 -188.21 276.776 -186.225 251.715 -176.788C206.022 -159.912 171.701 -119.099 163.769 -71.2586C148.532 15.2125 219.953 94.4282 307.652 85.0482C399.951 75.1851 454.794 -24.2054 415.095 -108.308C400.961 -138.803 375.302 -163.878 344.521 -177.542C342.276 -178.514 339.973 -179.53 337.694 -180.4C335.619 -181.157 332.804 -182.342 330.673 -182.806L330.671 -182.806Z" fill="url(#paint0_linear_336_9121)" stroke="white" stroke-width="57"/>
</g>
<defs>
<linearGradient id="paint0_linear_336_9121" x1="43" y1="114.369" x2="144.652" y2="-265" gradientUnits="userSpaceOnUse">
<stop stop-color="#006838"/>
<stop offset="1" stop-color="#96CF24"/>
</linearGradient>
<clipPath id="clip0_336_9121">
<rect width="567" height="208" fill="white"/>
</clipPath>
</defs>
</svg>
