<svg width="40" height="36" viewBox="0 0 40 36" fill="none" xmlns="http://www.w3.org/2000/svg">
<path d="M25.625 24.25C25.625 23.1375 25.2951 22.0499 24.677 21.1249C24.0589 20.1999 23.1804 19.4789 22.1526 19.0532C21.1248 18.6274 19.9938 18.516 18.9026 18.7331C17.8115 18.9501 16.8092 19.4859 16.0225 20.2725C15.2359 21.0592 14.7001 22.0615 14.4831 23.1526C14.266 24.2438 14.3774 25.3748 14.8032 26.4026C15.2289 27.4304 15.9499 28.3089 16.8749 28.927C17.7999 29.5451 18.8875 29.875 20 29.875C21.4913 29.8733 22.9211 29.2802 23.9756 28.2257C25.0302 27.1711 25.6233 25.7413 25.625 24.25ZM20 27.375C19.3819 27.375 18.7777 27.1917 18.2638 26.8483C17.7499 26.505 17.3494 26.0169 17.1129 25.4459C16.8764 24.8749 16.8145 24.2465 16.935 23.6403C17.0556 23.0342 17.3533 22.4773 17.7903 22.0403C18.2273 21.6033 18.7842 21.3056 19.3903 21.185C19.9965 21.0645 20.6249 21.1264 21.1959 21.3629C21.7669 21.5994 22.255 21.9999 22.5983 22.5138C22.9417 23.0277 23.125 23.6319 23.125 24.25C23.124 25.0785 22.7944 25.8728 22.2086 26.4586C21.6228 27.0445 20.8285 27.374 20 27.375ZM23.125 29.875H16.875C16.0465 29.876 15.2522 30.2056 14.6664 30.7914C14.0806 31.3772 13.751 32.1715 13.75 33V34.25C13.75 34.5815 13.8817 34.8995 14.1161 35.1339C14.3505 35.3683 14.6685 35.5 15 35.5C15.3315 35.5 15.6495 35.3683 15.8839 35.1339C16.1183 34.8995 16.25 34.5815 16.25 34.25V33C16.2502 32.8343 16.3161 32.6754 16.4332 32.5582C16.5504 32.4411 16.7093 32.3752 16.875 32.375H23.125C23.2907 32.3752 23.4496 32.4411 23.5668 32.5582C23.6839 32.6754 23.7498 32.8343 23.75 33V34.25C23.75 34.5815 23.8817 34.8995 24.1161 35.1339C24.3505 35.3683 24.6685 35.5 25 35.5C25.3315 35.5 25.6495 35.3683 25.8839 35.1339C26.1183 34.8995 26.25 34.5815 26.25 34.25V33C26.249 32.1715 25.9194 31.3772 25.3336 30.7914C24.7478 30.2056 23.9535 29.876 23.125 29.875ZM39.375 24.25C39.375 23.1375 39.0451 22.0499 38.427 21.1249C37.8089 20.1999 36.9304 19.4789 35.9026 19.0532C34.8748 18.6274 33.7438 18.516 32.6526 18.7331C31.5615 18.9501 30.5592 19.4859 29.7725 20.2725C28.9859 21.0592 28.4501 22.0615 28.2331 23.1526C28.016 24.2438 28.1274 25.3748 28.5532 26.4026C28.9789 27.4304 29.6999 28.3089 30.6249 28.927C31.5499 29.5451 32.6375 29.875 33.75 29.875C35.2413 29.8733 36.6711 29.2802 37.7256 28.2257C38.7802 27.1711 39.3733 25.7413 39.375 24.25ZM33.75 27.375C33.1319 27.375 32.5277 27.1917 32.0138 26.8483C31.4999 26.505 31.0994 26.0169 30.8629 25.4459C30.6264 24.8749 30.5645 24.2465 30.685 23.6403C30.8056 23.0342 31.1033 22.4773 31.5403 22.0403C31.9773 21.6033 32.5342 21.3056 33.1403 21.185C33.7465 21.0645 34.3749 21.1264 34.9459 21.3629C35.5169 21.5994 36.005 21.9999 36.3483 22.5138C36.6917 23.0277 36.875 23.6319 36.875 24.25C36.874 25.0785 36.5444 25.8728 35.9586 26.4586C35.3728 27.0445 34.5785 27.374 33.75 27.375ZM36.875 29.875H30.625C29.7965 29.876 29.0022 30.2056 28.4164 30.7914C27.8306 31.3772 27.501 32.1715 27.5 33V34.25C27.5 34.5815 27.6317 34.8995 27.8661 35.1339C28.1005 35.3683 28.4185 35.5 28.75 35.5C29.0815 35.5 29.3995 35.3683 29.6339 35.1339C29.8683 34.8995 30 34.5815 30 34.25V33C30.0002 32.8343 30.0661 32.6754 30.1832 32.5582C30.3004 32.4411 30.4593 32.3752 30.625 32.375H36.875C37.0407 32.3752 37.1996 32.4411 37.3168 32.5582C37.4339 32.6754 37.4998 32.8343 37.5 33V34.25C37.5 34.5815 37.6317 34.8995 37.8661 35.1339C38.1005 35.3683 38.4185 35.5 38.75 35.5C39.0815 35.5 39.3995 35.3683 39.6339 35.1339C39.8683 34.8995 40 34.5815 40 34.25V33C39.999 32.1715 39.6694 31.3772 39.0836 30.7914C38.4978 30.2056 37.7035 29.876 36.875 29.875ZM18.75 6.125C18.75 5.01248 18.4201 3.92495 17.802 2.99992C17.1839 2.07489 16.3054 1.35392 15.2776 0.92818C14.2498 0.502437 13.1188 0.391043 12.0276 0.608085C10.9365 0.825127 9.93419 1.36086 9.14752 2.14753C8.36085 2.9342 7.82512 3.93648 7.60808 5.02762C7.39104 6.11876 7.50243 7.24976 7.92818 8.2776C8.35392 9.30543 9.07489 10.1839 9.99992 10.802C10.9249 11.4201 12.0125 11.75 13.125 11.75C14.6163 11.7483 16.0461 11.1552 17.1006 10.1007C18.1552 9.04612 18.7483 7.61634 18.75 6.125ZM13.125 9.25C12.5069 9.25 11.9027 9.06672 11.3888 8.72334C10.8749 8.37997 10.4744 7.89191 10.2379 7.32089C10.0014 6.74987 9.93947 6.12154 10.06 5.51535C10.1806 4.90915 10.4783 4.35233 10.9153 3.91529C11.3523 3.47825 11.9092 3.18063 12.5153 3.06005C13.1215 2.93947 13.7499 3.00135 14.3209 3.23788C14.8919 3.4744 15.38 3.87494 15.7233 4.38885C16.0667 4.90275 16.25 5.50694 16.25 6.125C16.249 6.9535 15.9194 7.74778 15.3336 8.33362C14.7478 8.91945 13.9535 9.24901 13.125 9.25ZM8.125 17.375C8.45652 17.375 8.77446 17.2433 9.00888 17.0089C9.2433 16.7745 9.375 16.4565 9.375 16.125V14.875C9.37516 14.7093 9.44107 14.5504 9.55824 14.4332C9.67542 14.3161 9.83429 14.2502 10 14.25H16.25C16.4157 14.2502 16.5746 14.3161 16.6918 14.4332C16.8089 14.5504 16.8748 14.7093 16.875 14.875V16.125C16.875 16.4565 17.0067 16.7745 17.2411 17.0089C17.4755 17.2433 17.7935 17.375 18.125 17.375C18.4565 17.375 18.7745 17.2433 19.0089 17.0089C19.2433 16.7745 19.375 16.4565 19.375 16.125V14.875C19.374 14.0465 19.0444 13.2522 18.4586 12.6664C17.8728 12.0806 17.0785 11.751 16.25 11.75H10C9.1715 11.751 8.37722 12.0806 7.79139 12.6664C7.20555 13.2522 6.87599 14.0465 6.875 14.875V16.125C6.875 16.4565 7.0067 16.7745 7.24112 17.0089C7.47554 17.2433 7.79348 17.375 8.125 17.375ZM32.5 6.125C32.5 5.01248 32.1701 3.92495 31.552 2.99992C30.9339 2.07489 30.0554 1.35392 29.0276 0.92818C27.9998 0.502437 26.8688 0.391043 25.7776 0.608085C24.6865 0.825127 23.6842 1.36086 22.8975 2.14753C22.1109 2.9342 21.5751 3.93648 21.3581 5.02762C21.141 6.11876 21.2524 7.24976 21.6782 8.2776C22.1039 9.30543 22.8249 10.1839 23.7499 10.802C24.6749 11.4201 25.7625 11.75 26.875 11.75C28.3663 11.7483 29.7961 11.1552 30.8506 10.1007C31.9052 9.04612 32.4983 7.61634 32.5 6.125ZM26.875 9.25C26.2569 9.25 25.6527 9.06672 25.1388 8.72334C24.6249 8.37997 24.2244 7.89191 23.9879 7.32089C23.7514 6.74987 23.6895 6.12154 23.81 5.51535C23.9306 4.90915 24.2283 4.35233 24.6653 3.91529C25.1023 3.47825 25.6592 3.18063 26.2653 3.06005C26.8715 2.93947 27.4999 3.00135 28.0709 3.23788C28.6419 3.4744 29.13 3.87494 29.4733 4.38885C29.8167 4.90275 30 5.50694 30 6.125C29.999 6.9535 29.6694 7.74778 29.0836 8.33362C28.4978 8.91945 27.7035 9.24901 26.875 9.25ZM21.875 17.375C22.2065 17.375 22.5245 17.2433 22.7589 17.0089C22.9933 16.7745 23.125 16.4565 23.125 16.125V14.875C23.1252 14.7093 23.1911 14.5504 23.3082 14.4332C23.4254 14.3161 23.5843 14.2502 23.75 14.25H30C30.1657 14.2502 30.3246 14.3161 30.4418 14.4332C30.5589 14.5504 30.6248 14.7093 30.625 14.875V16.125C30.625 16.4565 30.7567 16.7745 30.9911 17.0089C31.2255 17.2433 31.5435 17.375 31.875 17.375C32.2065 17.375 32.5245 17.2433 32.7589 17.0089C32.9933 16.7745 33.125 16.4565 33.125 16.125V14.875C33.124 14.0465 32.7944 13.2522 32.2086 12.6664C31.6228 12.0806 30.8285 11.751 30 11.75H23.75C22.9215 11.751 22.1272 12.0806 21.5414 12.6664C20.9556 13.2522 20.626 14.0465 20.625 14.875V16.125C20.625 16.4565 20.7567 16.7745 20.9911 17.0089C21.2255 17.2433 21.5435 17.375 21.875 17.375ZM11.875 24.25C11.875 23.1375 11.5451 22.0499 10.927 21.1249C10.3089 20.1999 9.43043 19.4789 8.40259 19.0532C7.37476 18.6274 6.24376 18.516 5.15262 18.7331C4.06147 18.9501 3.05919 19.4859 2.27252 20.2725C1.48585 21.0592 0.950125 22.0615 0.733083 23.1526C0.516041 24.2438 0.627435 25.3748 1.05318 26.4026C1.47892 27.4304 2.19989 28.3089 3.12492 28.927C4.04994 29.5451 5.13748 29.875 6.25 29.875C7.74133 29.8733 9.17111 29.2802 10.2256 28.2257C11.2802 27.1711 11.8733 25.7413 11.875 24.25ZM6.25 27.375C5.63193 27.375 5.02775 27.1917 4.51384 26.8483C3.99994 26.505 3.5994 26.0169 3.36288 25.4459C3.12635 24.8749 3.06447 24.2465 3.18505 23.6403C3.30562 23.0342 3.60325 22.4773 4.04029 22.0403C4.47733 21.6033 5.03415 21.3056 5.64034 21.185C6.24653 21.0645 6.87487 21.1264 7.44589 21.3629C8.0169 21.5994 8.50496 21.9999 8.84834 22.5138C9.19172 23.0277 9.375 23.6319 9.375 24.25C9.37401 25.0785 9.04445 25.8728 8.45861 26.4586C7.87278 27.0445 7.0785 27.374 6.25 27.375ZM9.375 29.875H3.125C2.2965 29.876 1.50222 30.2056 0.916387 30.7914C0.330551 31.3772 0.000992411 32.1715 0 33L0 34.25C0 34.5815 0.131696 34.8995 0.366117 35.1339C0.600537 35.3683 0.918479 35.5 1.25 35.5C1.58152 35.5 1.89946 35.3683 2.13388 35.1339C2.3683 34.8995 2.5 34.5815 2.5 34.25V33C2.50017 32.8343 2.56607 32.6754 2.68324 32.5582C2.80042 32.4411 2.95929 32.3752 3.125 32.375H9.375C9.54071 32.3752 9.69958 32.4411 9.81676 32.5582C9.93393 32.6754 9.99984 32.8343 10 33V34.25C10 34.5815 10.1317 34.8995 10.3661 35.1339C10.6005 35.3683 10.9185 35.5 11.25 35.5C11.5815 35.5 11.8995 35.3683 12.1339 35.1339C12.3683 34.8995 12.5 34.5815 12.5 34.25V33C12.499 32.1715 12.1694 31.3772 11.5836 30.7914C10.9978 30.2056 10.2035 29.876 9.375 29.875Z" fill="url(#paint0_linear_336_9108)" stroke="white" stroke-width="0.6"/>
<path d="M13.125 19.25C13.8154 19.25 14.375 18.6904 14.375 18C14.375 17.3096 13.8154 16.75 13.125 16.75C12.4346 16.75 11.875 17.3096 11.875 18C11.875 18.6904 12.4346 19.25 13.125 19.25Z" fill="url(#paint1_linear_336_9108)"/>
<defs>
<linearGradient id="paint0_linear_336_9108" x1="-4.52581e-05" y1="0.500448" x2="39.9999" y2="0.500448" gradientUnits="userSpaceOnUse">
<stop stop-color="#012F07"/>
<stop offset="1" stop-color="#59A52C"/>
</linearGradient>
<linearGradient id="paint1_linear_336_9108" x1="11.875" y1="16.75" x2="14.375" y2="16.75" gradientUnits="userSpaceOnUse">
<stop stop-color="#012F07"/>
<stop offset="1" stop-color="#59A52C"/>
</linearGradient>
</defs>
</svg>
