<svg width="34" height="40" viewBox="0 0 34 40" fill="none" xmlns="http://www.w3.org/2000/svg">
<path d="M23.667 28.3333H27.0003C27.2213 28.3333 27.4333 28.2455 27.5896 28.0893C27.7459 27.933 27.8337 27.721 27.8337 27.5C27.8337 27.279 27.7459 27.067 27.5896 26.9107C27.4333 26.7545 27.2213 26.6667 27.0003 26.6667H25.3337V25.8333C25.3337 25.6123 25.2459 25.4004 25.0896 25.2441C24.9333 25.0878 24.7213 25 24.5003 25C24.2793 25 24.0673 25.0878 23.9111 25.2441C23.7548 25.4004 23.667 25.6123 23.667 25.8333V26.6667C23.004 26.6667 22.3681 26.9301 21.8992 27.3989C21.4304 27.8677 21.167 28.5036 21.167 29.1667C21.167 29.8297 21.4304 30.4656 21.8992 30.9344C22.3681 31.4033 23.004 31.6667 23.667 31.6667H25.3337C25.5547 31.6667 25.7666 31.7545 25.9229 31.9107C26.0792 32.067 26.167 32.279 26.167 32.5C26.167 32.721 26.0792 32.933 25.9229 33.0893C25.7666 33.2455 25.5547 33.3333 25.3337 33.3333H22.0003C21.7793 33.3333 21.5673 33.4211 21.4111 33.5774C21.2548 33.7337 21.167 33.9457 21.167 34.1667C21.167 34.3877 21.2548 34.5996 21.4111 34.7559C21.5673 34.9122 21.7793 35 22.0003 35H23.667V35.8333C23.667 36.0543 23.7548 36.2663 23.9111 36.4226C24.0673 36.5789 24.2793 36.6667 24.5003 36.6667C24.7213 36.6667 24.9333 36.5789 25.0896 36.4226C25.2459 36.2663 25.3337 36.0543 25.3337 35.8333V35C25.9967 35 26.6326 34.7366 27.1014 34.2678C27.5703 33.7989 27.8337 33.163 27.8337 32.5C27.8337 31.837 27.5703 31.2011 27.1014 30.7322C26.6326 30.2634 25.9967 30 25.3337 30H23.667C23.446 30 23.234 29.9122 23.0777 29.7559C22.9215 29.5996 22.8337 29.3877 22.8337 29.1667C22.8337 28.9457 22.9215 28.7337 23.0777 28.5774C23.234 28.4211 23.446 28.3333 23.667 28.3333Z" fill="url(#paint0_linear_336_9115)"/>
<path d="M22.8333 21.825V9.16665C25.0916 9.16665 25.8333 9.36665 26.1083 8.63332C26.3833 7.89998 26.3583 8.13332 17.5583 0.216652C17.4051 0.0784522 17.2062 0.00195313 16.9999 0.00195313C16.7937 0.00195312 16.5947 0.0784522 16.4416 0.216652L8.10826 7.71665C7.98393 7.82966 7.89666 7.97762 7.8579 8.1411C7.81915 8.30459 7.83071 8.47597 7.89109 8.63277C7.95147 8.78957 8.05783 8.92445 8.19622 9.01972C8.33461 9.115 8.49858 9.16621 8.66659 9.16665H11.1666V18.3333H2.41659C1.86406 18.3333 1.33415 18.5528 0.943454 18.9435C0.552753 19.3342 0.33326 19.8641 0.33326 20.4167C0.33326 23.2417 0.241593 23.4833 0.75826 24.1667C0.224927 24.875 0.33326 25.2167 0.33326 27.9167C0.336261 28.3683 0.485359 28.8068 0.75826 29.1667C0.485359 29.5265 0.336261 29.965 0.33326 30.4167C0.33326 33.2416 0.241593 33.4833 0.75826 34.1667C0.224927 34.875 0.33326 35.2167 0.33326 37.9167C0.33326 38.1902 0.387147 38.4611 0.491844 38.7139C0.596541 38.9667 0.749999 39.1963 0.943454 39.3898C1.13691 39.5832 1.36657 39.7367 1.61934 39.8414C1.8721 39.9461 2.14301 40 2.41659 40H16.5833C16.8583 40 17.1305 39.9456 17.3844 39.8398C17.6382 39.7341 17.8686 39.5791 18.0623 39.3839C18.256 39.1887 18.4091 38.9571 18.5128 38.7024C18.6165 38.4477 18.6688 38.175 18.6666 37.9C19.8549 38.8831 21.2721 39.5505 22.7868 39.8403C24.3016 40.1302 25.865 40.0332 27.3323 39.5583C28.7997 39.0834 30.1235 38.246 31.1811 37.1236C32.2388 36.0011 32.9962 34.63 33.3832 33.137C33.7702 31.6441 33.7742 30.0777 33.3949 28.5828C33.0157 27.0879 32.2654 25.7129 31.2135 24.585C30.1616 23.4571 28.8421 22.6129 27.3773 22.1304C25.9124 21.648 24.3495 21.5429 22.8333 21.825ZM11.9999 7.49999H10.8416L16.9999 1.95832L23.1583 7.49999H21.9999C21.7789 7.49999 21.567 7.58778 21.4107 7.74406C21.2544 7.90034 21.1666 8.1123 21.1666 8.33332V22.3C20.0944 22.7358 19.1135 23.369 18.2749 24.1667C18.7916 23.4417 18.6666 23 18.6666 20.4583C18.6721 20.1812 18.6223 19.9058 18.5201 19.6483C18.4179 19.3907 18.2653 19.1561 18.0713 18.9582C17.8773 18.7603 17.6458 18.6031 17.3903 18.4958C17.1347 18.3885 16.8604 18.3333 16.5833 18.3333H12.8333V8.33332C12.8333 8.1123 12.7455 7.90034 12.5892 7.74406C12.4329 7.58778 12.2209 7.49999 11.9999 7.49999ZM1.99993 32.9167C1.99993 30.4167 1.86659 30 2.41659 30H15.3749C15.2651 31.1211 15.3727 32.2529 15.6916 33.3333C1.54159 33.3333 1.99993 33.5083 1.99993 32.9167ZM1.99993 27.9167C1.99993 25.4167 1.86659 25 2.41659 25C17.3666 25 16.9999 24.8167 16.9999 25.4167C16.9999 25.8333 16.2583 26.325 15.6916 28.3333C1.54159 28.3333 1.99993 28.5083 1.99993 27.9167ZM1.99993 20.4167C1.99993 19.8167 1.41659 20 16.5833 20C17.1333 20 16.9999 20.4333 16.9999 22.9167C16.9999 23.5167 17.5833 23.3333 2.41659 23.3333C1.86659 23.3333 1.99993 22.9 1.99993 20.4167ZM16.5833 38.3333C1.63326 38.3333 1.99993 38.5167 1.99993 37.9167C1.99993 35.4167 1.86659 35 2.41659 35H16.3499C16.5387 35.3771 16.756 35.7393 16.9999 36.0833C16.9999 37.8666 17.1083 38.3333 16.5833 38.3333ZM24.4999 38.3333C23.0166 38.3333 21.5665 37.8935 20.3332 37.0693C19.0998 36.2452 18.1385 35.0739 17.5708 33.7034C17.0032 32.333 16.8546 30.825 17.144 29.3701C17.4334 27.9153 18.1477 26.5789 19.1966 25.53C20.2455 24.4811 21.5819 23.7668 23.0367 23.4774C24.4916 23.188 25.9996 23.3366 27.3701 23.9042C28.7405 24.4719 29.9118 25.4332 30.736 26.6665C31.5601 27.8999 31.9999 29.35 31.9999 30.8333C31.9999 32.8224 31.2098 34.7301 29.8032 36.1366C28.3967 37.5431 26.4891 38.3333 24.4999 38.3333Z" fill="url(#paint1_linear_336_9115)"/>
<defs>
<linearGradient id="paint0_linear_336_9115" x1="21.167" y1="25.0001" x2="27.8336" y2="25.0001" gradientUnits="userSpaceOnUse">
<stop stop-color="#012F07"/>
<stop offset="1" stop-color="#59A52C"/>
</linearGradient>
<linearGradient id="paint1_linear_336_9115" x1="0.324181" y1="0.00246534" x2="33.6764" y2="0.00246534" gradientUnits="userSpaceOnUse">
<stop stop-color="#012F07"/>
<stop offset="1" stop-color="#59A52C"/>
</linearGradient>
</defs>
</svg>
