<svg width="502" height="46" viewBox="0 0 502 46" fill="none" xmlns="http://www.w3.org/2000/svg">
<g opacity="0.2">
<mask id="path-1-outside-1_336_9185" maskUnits="userSpaceOnUse" x="-1" y="-0.999756" width="505" height="48" fill="black">
<rect fill="white" x="-1" y="-0.999756" width="505" height="48"/>
<path d="M43.1973 22.8098C43.1973 26.2206 42.7835 29.3287 41.9561 32.134C41.1488 34.9192 39.8773 37.3209 38.1416 39.3391C36.4059 41.3573 34.1758 42.9114 31.4512 44.0012C28.7266 45.0709 25.4671 45.6057 21.6729 45.6057C17.9593 45.6057 14.7402 45.0709 12.0156 44.0012C9.3112 42.9114 7.08105 41.3674 5.3252 39.3694C3.56934 37.3512 2.26758 34.9394 1.41992 32.134C0.572266 29.3287 0.148438 26.2004 0.148438 22.7493C0.148438 18.1477 0.905273 14.1516 2.41895 10.761C3.9528 7.35018 6.31413 4.71639 9.50293 2.85962C12.6917 0.982666 16.7686 0.0441895 21.7334 0.0441895C26.779 0.0441895 30.876 0.982666 34.0244 2.85962C37.193 4.73657 39.514 7.38045 40.9873 10.7913C42.4606 14.2021 43.1973 18.2083 43.1973 22.8098ZM12.7422 22.8098C12.7422 25.4739 13.0449 27.7646 13.6504 29.6819C14.2559 31.5992 15.2145 33.0725 16.5264 34.1018C17.8382 35.1311 19.5537 35.6458 21.6729 35.6458C23.8727 35.6458 25.6185 35.1311 26.9102 34.1018C28.222 33.0725 29.1605 31.5992 29.7256 29.6819C30.3109 27.7646 30.6035 25.4739 30.6035 22.8098C30.6035 18.8137 29.9375 15.6552 28.6055 13.3342C27.2734 11.0133 24.9827 9.85278 21.7334 9.85278C19.5739 9.85278 17.8281 10.3775 16.4961 11.427C15.1842 12.4765 14.2256 13.97 13.6201 15.9075C13.0348 17.845 12.7422 20.1458 12.7422 22.8098ZM90.0593 0.740479V27.3811C90.0593 31.0946 89.353 34.3238 87.9402 37.0686C86.5274 39.7932 84.4083 41.9023 81.5828 43.3958C78.7573 44.8691 75.2153 45.6057 70.9568 45.6057C64.8617 45.6057 60.2097 44.0416 57.0007 40.9133C53.7918 37.7851 52.1873 33.3652 52.1873 27.6536V0.740479H64.2058V26.7151C64.2058 29.8433 64.7911 32.1139 65.9617 33.5266C67.1323 34.9394 68.8578 35.6458 71.1384 35.6458C72.7732 35.6458 74.1052 35.343 75.1345 34.7375C76.1638 34.1119 76.9106 33.1331 77.3748 31.801C77.8591 30.469 78.1013 28.7535 78.1013 26.6545V0.740479H90.0593ZM115.094 0.740479C119.111 0.740479 122.451 1.23494 125.115 2.22388C127.779 3.19263 129.777 4.64575 131.109 6.58325C132.461 8.52075 133.137 10.9325 133.137 13.8186C133.137 15.6148 132.834 17.2496 132.229 18.7229C131.624 20.1962 130.756 21.5181 129.626 22.6887C128.515 23.8391 127.183 24.8482 125.629 25.7161L138.526 45.0002H124.963L115.579 28.8948H112.551V45.0002H100.593V0.740479H115.094ZM114.913 9.79224H112.551V19.9036H114.792C116.628 19.9036 118.132 19.4999 119.302 18.6926C120.473 17.8853 121.058 16.4423 121.058 14.3635C121.058 12.9306 120.574 11.8105 119.605 11.0032C118.636 10.1959 117.072 9.79224 114.913 9.79224ZM190.079 31.5588C190.079 33.9605 189.474 36.2411 188.263 38.4006C187.052 40.54 185.165 42.2756 182.602 43.6077C180.059 44.9397 176.769 45.6057 172.732 45.6057C170.714 45.6057 168.938 45.5149 167.404 45.3333C165.891 45.1516 164.478 44.859 163.166 44.4553C161.854 44.0315 160.492 43.4866 159.079 42.8206V32.1643C161.481 33.3752 163.903 34.3036 166.345 34.9495C168.787 35.5751 170.997 35.8879 172.975 35.8879C174.165 35.8879 175.134 35.7467 175.881 35.4641C176.648 35.1816 177.213 34.7981 177.576 34.3137C177.939 33.8092 178.121 33.234 178.121 32.5881C178.121 31.8212 177.849 31.1754 177.304 30.6506C176.779 30.1057 175.931 29.5406 174.761 28.9553C173.59 28.37 172.046 27.6435 170.129 26.7756C168.494 26.0087 167.011 25.2216 165.679 24.4143C164.367 23.607 163.237 22.6887 162.288 21.6594C161.36 20.6099 160.643 19.3889 160.139 17.9963C159.634 16.6038 159.382 14.9589 159.382 13.0618C159.382 10.2161 160.078 7.83455 161.471 5.91724C162.884 3.97974 164.841 2.52661 167.344 1.55786C169.867 0.589111 172.773 0.104736 176.063 0.104736C178.949 0.104736 181.542 0.427653 183.843 1.07349C186.164 1.71932 188.243 2.45597 190.079 3.28345L186.416 12.5168C184.519 11.649 182.652 10.9628 180.815 10.4583C178.979 9.93351 177.273 9.67114 175.699 9.67114C174.67 9.67114 173.822 9.80233 173.156 10.0647C172.51 10.3069 172.026 10.6399 171.703 11.0637C171.4 11.4875 171.249 11.9719 171.249 12.5168C171.249 13.203 171.511 13.8186 172.036 14.3635C172.581 14.9084 173.479 15.5038 174.731 16.1497C176.002 16.7753 177.728 17.5927 179.907 18.6018C182.067 19.5706 183.903 20.62 185.417 21.7502C186.931 22.8603 188.081 24.2024 188.868 25.7766C189.676 27.3306 190.079 29.2581 190.079 31.5588ZM213.479 0.740479C219.09 0.740479 223.288 1.96151 226.073 4.40356C228.878 6.84562 230.281 10.317 230.281 14.8176C230.281 16.8359 229.988 18.7734 229.403 20.6301C228.838 22.4869 227.9 24.1418 226.588 25.595C225.296 27.0481 223.57 28.1985 221.411 29.0461C219.272 29.8938 216.628 30.3176 213.479 30.3176H210.119V45.0002H198.161V0.740479H213.479ZM213.207 10.3977H210.119V20.5696H212.48C213.51 20.5696 214.468 20.398 215.356 20.0549C216.244 19.6917 216.951 19.1165 217.475 18.3293C218.02 17.5221 218.293 16.4524 218.293 15.1204C218.293 13.7278 217.879 12.5976 217.052 11.7297C216.224 10.8417 214.943 10.3977 213.207 10.3977ZM279.989 22.8098C279.989 26.2206 279.575 29.3287 278.748 32.134C277.94 34.9192 276.669 37.3209 274.933 39.3391C273.197 41.3573 270.967 42.9114 268.243 44.0012C265.518 45.0709 262.259 45.6057 258.464 45.6057C254.751 45.6057 251.532 45.0709 248.807 44.0012C246.103 42.9114 243.873 41.3674 242.117 39.3694C240.361 37.3512 239.059 34.9394 238.211 32.134C237.364 29.3287 236.94 26.2004 236.94 22.7493C236.94 18.1477 237.697 14.1516 239.211 10.761C240.744 7.35018 243.106 4.71639 246.294 2.85962C249.483 0.982666 253.56 0.0441895 258.525 0.0441895C263.571 0.0441895 267.668 0.982666 270.816 2.85962C273.985 4.73657 276.306 7.38045 277.779 10.7913C279.252 14.2021 279.989 18.2083 279.989 22.8098ZM249.534 22.8098C249.534 25.4739 249.836 27.7646 250.442 29.6819C251.047 31.5992 252.006 33.0725 253.318 34.1018C254.63 35.1311 256.345 35.6458 258.464 35.6458C260.664 35.6458 262.41 35.1311 263.702 34.1018C265.014 33.0725 265.952 31.5992 266.517 29.6819C267.102 27.7646 267.395 25.4739 267.395 22.8098C267.395 18.8137 266.729 15.6552 265.397 13.3342C264.065 11.0133 261.774 9.85278 258.525 9.85278C256.365 9.85278 254.62 10.3775 253.288 11.427C251.976 12.4765 251.017 13.97 250.412 15.9075C249.826 17.845 249.534 20.1458 249.534 22.8098ZM331.362 45.0002H315.68L299.514 13.8186H299.242C299.342 14.7672 299.433 15.9075 299.514 17.2395C299.595 18.5715 299.665 19.9338 299.726 21.3264C299.786 22.6988 299.817 23.94 299.817 25.05V45.0002H289.221V0.740479H304.842L320.948 31.4983H321.129C321.069 30.5295 321.008 29.4094 320.948 28.1379C320.887 26.8463 320.826 25.5445 320.766 24.2327C320.726 22.9208 320.705 21.7603 320.705 20.7512V0.740479H331.362V45.0002ZM371.109 31.5588C371.109 33.9605 370.504 36.2411 369.293 38.4006C368.082 40.54 366.195 42.2756 363.632 43.6077C361.089 44.9397 357.799 45.6057 353.763 45.6057C351.745 45.6057 349.969 45.5149 348.435 45.3333C346.921 45.1516 345.508 44.859 344.196 44.4553C342.885 44.0315 341.522 43.4866 340.109 42.8206V32.1643C342.511 33.3752 344.933 34.3036 347.375 34.9495C349.817 35.5751 352.027 35.8879 354.005 35.8879C355.196 35.8879 356.164 35.7467 356.911 35.4641C357.678 35.1816 358.243 34.7981 358.607 34.3137C358.97 33.8092 359.151 33.234 359.151 32.5881C359.151 31.8212 358.879 31.1754 358.334 30.6506C357.809 30.1057 356.962 29.5406 355.791 28.9553C354.621 28.37 353.077 27.6435 351.159 26.7756C349.525 26.0087 348.041 25.2216 346.709 24.4143C345.397 23.607 344.267 22.6887 343.318 21.6594C342.39 20.6099 341.674 19.3889 341.169 17.9963C340.664 16.6038 340.412 14.9589 340.412 13.0618C340.412 10.2161 341.108 7.83455 342.501 5.91724C343.914 3.97974 345.872 2.52661 348.374 1.55786C350.897 0.589111 353.803 0.104736 357.093 0.104736C359.979 0.104736 362.572 0.427653 364.873 1.07349C367.194 1.71932 369.273 2.45597 371.109 3.28345L367.446 12.5168C365.549 11.649 363.682 10.9628 361.846 10.4583C360.009 9.93351 358.304 9.67114 356.73 9.67114C355.7 9.67114 354.853 9.80233 354.187 10.0647C353.541 10.3069 353.056 10.6399 352.733 11.0637C352.431 11.4875 352.279 11.9719 352.279 12.5168C352.279 13.203 352.542 13.8186 353.066 14.3635C353.611 14.9084 354.51 15.5038 355.761 16.1497C357.032 16.7753 358.758 17.5927 360.938 18.6018C363.097 19.5706 364.934 20.62 366.447 21.7502C367.961 22.8603 369.111 24.2024 369.899 25.7766C370.706 27.3306 371.109 29.2581 371.109 31.5588ZM420.605 22.8098C420.605 26.2206 420.192 29.3287 419.364 32.134C418.557 34.9192 417.285 37.3209 415.55 39.3391C413.814 41.3573 411.584 42.9114 408.859 44.0012C406.135 45.0709 402.875 45.6057 399.081 45.6057C395.367 45.6057 392.148 45.0709 389.424 44.0012C386.719 42.9114 384.489 41.3674 382.733 39.3694C380.977 37.3512 379.676 34.9394 378.828 32.134C377.98 29.3287 377.556 26.2004 377.556 22.7493C377.556 18.1477 378.313 14.1516 379.827 10.761C381.361 7.35018 383.722 4.71639 386.911 2.85962C390.1 0.982666 394.177 0.0441895 399.141 0.0441895C404.187 0.0441895 408.284 0.982666 411.432 2.85962C414.601 4.73657 416.922 7.38045 418.395 10.7913C419.869 14.2021 420.605 18.2083 420.605 22.8098ZM390.15 22.8098C390.15 25.4739 390.453 27.7646 391.058 29.6819C391.664 31.5992 392.623 33.0725 393.934 34.1018C395.246 35.1311 396.962 35.6458 399.081 35.6458C401.281 35.6458 403.027 35.1311 404.318 34.1018C405.63 33.0725 406.569 31.5992 407.134 29.6819C407.719 27.7646 408.012 25.4739 408.012 22.8098C408.012 18.8137 407.346 15.6552 406.014 13.3342C404.681 11.0133 402.391 9.85278 399.141 9.85278C396.982 9.85278 395.236 10.3775 393.904 11.427C392.592 12.4765 391.634 13.97 391.028 15.9075C390.443 17.845 390.15 20.1458 390.15 22.8098ZM444.338 0.740479C448.355 0.740479 451.695 1.23494 454.359 2.22388C457.023 3.19263 459.021 4.64575 460.353 6.58325C461.705 8.52075 462.381 10.9325 462.381 13.8186C462.381 15.6148 462.079 17.2496 461.473 18.7229C460.868 20.1962 460 21.5181 458.87 22.6887C457.76 23.8391 456.428 24.8482 454.874 25.7161L467.77 45.0002H454.208L444.823 28.8948H441.796V45.0002H429.837V0.740479H444.338ZM444.157 9.79224H441.796V19.9036H444.036C445.872 19.9036 447.376 19.4999 448.546 18.6926C449.717 17.8853 450.302 16.4423 450.302 14.3635C450.302 12.9306 449.818 11.8105 448.849 11.0032C447.88 10.1959 446.316 9.79224 444.157 9.79224ZM501.978 31.5588C501.978 33.9605 501.372 36.2411 500.161 38.4006C498.951 40.54 497.064 42.2756 494.5 43.6077C491.957 44.9397 488.668 45.6057 484.631 45.6057C482.613 45.6057 480.837 45.5149 479.303 45.3333C477.789 45.1516 476.377 44.859 475.065 44.4553C473.753 44.0315 472.391 43.4866 470.978 42.8206V32.1643C473.38 33.3752 475.801 34.3036 478.244 34.9495C480.686 35.5751 482.896 35.8879 484.873 35.8879C486.064 35.8879 487.033 35.7467 487.78 35.4641C488.547 35.1816 489.112 34.7981 489.475 34.3137C489.838 33.8092 490.02 33.234 490.02 32.5881C490.02 31.8212 489.747 31.1754 489.203 30.6506C488.678 30.1057 487.83 29.5406 486.66 28.9553C485.489 28.37 483.945 27.6435 482.028 26.7756C480.393 26.0087 478.91 25.2216 477.578 24.4143C476.266 23.607 475.135 22.6887 474.187 21.6594C473.259 20.6099 472.542 19.3889 472.037 17.9963C471.533 16.6038 471.281 14.9589 471.281 13.0618C471.281 10.2161 471.977 7.83455 473.37 5.91724C474.782 3.97974 476.74 2.52661 479.243 1.55786C481.765 0.589111 484.672 0.104736 487.961 0.104736C490.847 0.104736 493.441 0.427653 495.742 1.07349C498.063 1.71932 500.141 2.45597 501.978 3.28345L498.315 12.5168C496.418 11.649 494.551 10.9628 492.714 10.4583C490.878 9.93351 489.172 9.67114 487.598 9.67114C486.569 9.67114 485.721 9.80233 485.055 10.0647C484.409 10.3069 483.925 10.6399 483.602 11.0637C483.299 11.4875 483.148 11.9719 483.148 12.5168C483.148 13.203 483.41 13.8186 483.935 14.3635C484.48 14.9084 485.378 15.5038 486.629 16.1497C487.901 16.7753 489.626 17.5927 491.806 18.6018C493.966 19.5706 495.802 20.62 497.316 21.7502C498.829 22.8603 499.98 24.2024 500.767 25.7766C501.574 27.3306 501.978 29.2581 501.978 31.5588Z"/>
</mask>
<path d="M41.9561 32.134L40.9969 31.8511L40.9956 31.8556L41.9561 32.134ZM31.4512 44.0012L31.8166 44.9321L31.8226 44.9297L31.4512 44.0012ZM12.0156 44.0012L11.6418 44.9288L11.6502 44.9321L12.0156 44.0012ZM5.3252 39.3694L4.57074 40.0258L4.57403 40.0295L5.3252 39.3694ZM2.41895 10.761L1.50692 10.3508L1.50581 10.3533L2.41895 10.761ZM9.50293 2.85962L10.0061 3.7238L10.0102 3.72141L9.50293 2.85962ZM34.0244 2.85962L33.5123 3.71857L33.5148 3.72L34.0244 2.85962ZM40.9873 10.7913L40.0693 11.1878L40.9873 10.7913ZM13.6504 29.6819L12.6968 29.983L13.6504 29.6819ZM26.9102 34.1018L26.2929 33.315L26.287 33.3197L26.9102 34.1018ZM29.7256 29.6819L28.7691 29.3899L28.7664 29.3992L29.7256 29.6819ZM28.6055 13.3342L27.7382 13.832L28.6055 13.3342ZM16.4961 11.427L15.8772 10.6415L15.8714 10.6461L16.4961 11.427ZM13.6201 15.9075L12.6656 15.6092L12.6628 15.6183L13.6201 15.9075ZM42.1973 22.8098C42.1973 26.1403 41.7932 29.1514 40.9969 31.8511L42.9152 32.4169C43.7738 29.506 44.1973 26.3009 44.1973 22.8098H42.1973ZM40.9956 31.8556C40.2246 34.5156 39.0176 36.7869 37.3834 38.6871L38.8998 39.9911C40.737 37.8549 42.073 35.3227 42.9165 32.4124L40.9956 31.8556ZM37.3834 38.6871C35.763 40.5713 33.6707 42.0364 31.0798 43.0727L31.8226 44.9297C34.6809 43.7864 37.0489 42.1434 38.8998 39.9911L37.3834 38.6871ZM31.0857 43.0704C28.5064 44.083 25.3773 44.6057 21.6729 44.6057V46.6057C25.5569 46.6057 28.9467 46.0587 31.8166 44.9321L31.0857 43.0704ZM21.6729 44.6057C18.0522 44.6057 14.9626 44.0839 12.3811 43.0704L11.6502 44.9321C14.5178 46.0579 17.8665 46.6057 21.6729 46.6057V44.6057ZM12.3894 43.0737C9.81576 42.0366 7.71941 40.5789 6.07636 38.7093L4.57403 40.0295C6.4427 42.1559 8.80664 43.7862 11.6418 44.9287L12.3894 43.0737ZM6.07964 38.713C4.42512 36.8113 3.18788 34.5278 2.37718 31.8448L0.462666 32.4233C1.34727 35.3509 2.71355 37.891 4.57075 40.0257L6.07964 38.713ZM2.37718 31.8448C1.56237 29.1482 1.14844 26.1194 1.14844 22.7493H-0.851562C-0.851562 26.2815 -0.41784 29.5092 0.462666 32.4233L2.37718 31.8448ZM1.14844 22.7493C1.14844 18.2555 1.88765 14.4042 3.33208 11.1686L1.50581 10.3533C-0.0771031 13.8991 -0.851562 18.0399 -0.851562 22.7493H1.14844ZM3.33097 11.1711C4.78049 7.94785 7.00022 5.47407 10.0061 3.72379L8.99974 1.99544C5.62804 3.95871 3.12511 6.75251 1.50692 10.3508L3.33097 11.1711ZM10.0102 3.72141C13.0014 1.96077 16.888 1.04419 21.7334 1.04419V-0.955811C16.6491 -0.955811 12.3821 0.00456238 8.99567 1.99783L10.0102 3.72141ZM21.7334 1.04419C26.6638 1.04419 30.5665 1.96236 33.5123 3.71857L34.5365 2.00067C31.1855 0.00297165 26.8942 -0.955811 21.7334 -0.955811V1.04419ZM33.5148 3.72C36.5 5.48831 38.6789 7.969 40.0693 11.1878L41.9053 10.3947C40.3491 6.79191 37.8861 3.98483 34.5341 1.99924L33.5148 3.72ZM40.0693 11.1878C41.4773 14.4473 42.1973 18.3131 42.1973 22.8098H44.1973C44.1973 18.1034 43.444 13.9568 41.9053 10.3947L40.0693 11.1878ZM11.7422 22.8098C11.7422 25.5449 12.0524 27.9425 12.6968 29.983L14.604 29.3808C14.0374 27.5866 13.7422 25.4028 13.7422 22.8098H11.7422ZM12.6968 29.983C13.3502 32.0522 14.4086 33.7113 15.9091 34.8885L17.1437 33.3151C16.0204 32.4338 15.1615 31.1462 14.604 29.3808L12.6968 29.983ZM15.9091 34.8885C17.44 36.0897 19.3914 36.6458 21.6729 36.6458V34.6458C19.716 34.6458 18.2364 34.1725 17.1437 33.3151L15.9091 34.8885ZM21.6729 36.6458C24.0239 36.6458 26.0136 36.0949 27.5334 34.8839L26.287 33.3197C25.2234 34.1673 23.7215 34.6458 21.6729 34.6458V36.6458ZM27.5274 34.8885C29.0333 33.707 30.0728 32.0408 30.6848 29.9646L28.7664 29.3992C28.2481 31.1576 27.4107 32.438 26.2929 33.3151L27.5274 34.8885ZM30.682 29.9738C31.3039 27.9366 31.6035 25.5424 31.6035 22.8098H29.6035C29.6035 25.4053 29.3178 27.5925 28.7692 29.3899L30.682 29.9738ZM31.6035 22.8098C31.6035 18.7189 30.9244 15.3657 29.4728 12.8365L27.7382 13.832C28.9506 15.9447 29.6035 18.9085 29.6035 22.8098H31.6035ZM29.4728 12.8365C27.9216 10.1337 25.2506 8.85278 21.7334 8.85278V10.8528C24.7149 10.8528 26.6252 11.8928 27.7382 13.832L29.4728 12.8365ZM21.7334 8.85278C19.4117 8.85278 17.429 9.41889 15.8772 10.6415L17.115 12.2125C18.2272 11.3362 19.7361 10.8528 21.7334 10.8528V8.85278ZM15.8714 10.6461C14.3741 11.844 13.318 13.5217 12.6656 15.6092L14.5746 16.2057C15.1332 14.4182 15.9944 13.109 17.1208 12.2079L15.8714 10.6461ZM12.6628 15.6183C12.0419 17.6738 11.7422 20.0768 11.7422 22.8098H13.7422C13.7422 20.2147 14.0278 18.0161 14.5774 16.1966L12.6628 15.6183ZM90.0593 0.740479H91.0593V-0.259521H90.0593V0.740479ZM87.9402 37.0686L88.828 37.5289L88.8293 37.5262L87.9402 37.0686ZM81.5828 43.3958L82.0451 44.2825L82.0501 44.2798L81.5828 43.3958ZM52.1873 0.740479V-0.259521H51.1873V0.740479H52.1873ZM64.2058 0.740479H65.2058V-0.259521H64.2058V0.740479ZM75.1345 34.7375L75.6416 35.5995L75.6478 35.5958L75.6539 35.5921L75.1345 34.7375ZM77.3748 31.801L76.4349 31.4593L76.4305 31.472L77.3748 31.801ZM78.1013 0.740479V-0.259521H77.1013V0.740479H78.1013ZM89.0593 0.740479V27.3811H91.0593V0.740479H89.0593ZM89.0593 27.3811C89.0593 30.9675 88.3776 34.0337 87.0511 36.611L88.8293 37.5262C90.3283 34.6139 91.0593 31.2218 91.0593 27.3811H89.0593ZM87.0524 36.6083C85.7374 39.1444 83.7689 41.1091 81.1155 42.5117L82.0501 44.2798C85.0477 42.6954 87.3174 40.4421 88.8279 37.5289L87.0524 36.6083ZM81.1204 42.5091C78.4775 43.8872 75.1062 44.6057 70.9568 44.6057V46.6057C75.3244 46.6057 79.037 45.851 82.0451 44.2824L81.1204 42.5091ZM70.9568 44.6057C65.0266 44.6057 60.662 43.086 57.6988 40.1973L56.3027 41.6294C59.7574 44.9972 64.6969 46.6057 70.9568 46.6057V44.6057ZM57.6988 40.1973C54.7324 37.3055 53.1873 33.1735 53.1873 27.6536H51.1873C51.1873 33.5568 52.8512 38.2647 56.3027 41.6294L57.6988 40.1973ZM53.1873 27.6536V0.740479H51.1873V27.6536H53.1873ZM52.1873 1.74048H64.2058V-0.259521H52.1873V1.74048ZM63.2058 0.740479V26.7151H65.2058V0.740479H63.2058ZM63.2058 26.7151C63.2058 29.9265 63.7989 32.4837 65.1917 34.1646L66.7317 32.8886C65.7834 31.744 65.2058 29.7602 65.2058 26.7151H63.2058ZM65.1917 34.1646C66.5974 35.8613 68.6391 36.6458 71.1384 36.6458V34.6458C69.0766 34.6458 67.6671 34.0175 66.7317 32.8886L65.1917 34.1646ZM71.1384 36.6458C72.8884 36.6458 74.412 36.3227 75.6416 35.5995L74.6275 33.8756C73.7984 34.3633 72.658 34.6458 71.1384 34.6458V36.6458ZM75.6539 35.5921C76.9144 34.8259 77.7922 33.642 78.3191 32.1301L76.4305 31.472C76.0289 32.6242 75.4132 33.3979 74.6151 33.883L75.6539 35.5921ZM78.3146 32.1428C78.853 30.662 79.1013 28.8194 79.1013 26.6545H77.1013C77.1013 28.6876 76.8653 30.276 76.435 31.4593L78.3146 32.1428ZM79.1013 26.6545V0.740479H77.1013V26.6545H79.1013ZM78.1013 1.74048H90.0593V-0.259521H78.1013V1.74048ZM125.115 2.22388L124.767 3.16139L124.773 3.16367L125.115 2.22388ZM131.109 6.58325L130.285 7.1498L130.289 7.15557L131.109 6.58325ZM129.626 22.6887L128.906 21.9941L128.906 21.9944L129.626 22.6887ZM125.629 25.7161L125.142 24.843L124.196 25.3713L124.798 26.272L125.629 25.7161ZM138.526 45.0002V46.0002H140.398L139.357 44.4443L138.526 45.0002ZM124.963 45.0002L124.099 45.5037L124.389 46.0002H124.963V45.0002ZM115.579 28.8948L116.443 28.3913L116.153 27.8948H115.579V28.8948ZM112.551 28.8948V27.8948H111.551V28.8948H112.551ZM112.551 45.0002V46.0002H113.551V45.0002H112.551ZM100.593 45.0002H99.5933V46.0002H100.593V45.0002ZM100.593 0.740479V-0.259521H99.5933V0.740479H100.593ZM112.551 9.79224V8.79224H111.551V9.79224H112.551ZM112.551 19.9036H111.551V20.9036H112.551V19.9036ZM115.094 1.74048C119.037 1.74048 122.25 2.22703 124.767 3.16137L125.463 1.28638C122.652 0.242857 119.184 -0.259521 115.094 -0.259521V1.74048ZM124.773 3.16367C127.282 4.07619 129.093 5.41671 130.285 7.14978L131.933 6.01672C130.46 3.8748 128.275 2.30906 125.457 1.28408L124.773 3.16367ZM130.289 7.15557C131.5 8.89108 132.137 11.0912 132.137 13.8186H134.137C134.137 10.7738 133.422 8.15042 131.929 6.01094L130.289 7.15557ZM132.137 13.8186C132.137 15.501 131.854 17.0045 131.304 18.3428L133.154 19.103C133.815 17.4947 134.137 15.7286 134.137 13.8186H132.137ZM131.304 18.3428C130.748 19.6967 129.95 20.9125 128.906 21.9941L130.345 23.3833C131.561 22.1238 132.499 20.6957 133.154 19.103L131.304 18.3428ZM128.906 21.9944C127.871 23.0666 126.62 24.0176 125.142 24.843L126.117 26.5891C127.747 25.6788 129.16 24.6116 130.345 23.3831L128.906 21.9944ZM124.798 26.272L137.695 45.5561L139.357 44.4443L126.461 25.1602L124.798 26.272ZM138.526 44.0002H124.963V46.0002H138.526V44.0002ZM125.827 44.4968L116.443 28.3913L114.715 29.3982L124.099 45.5037L125.827 44.4968ZM115.579 27.8948H112.551V29.8948H115.579V27.8948ZM111.551 28.8948V45.0002H113.551V28.8948H111.551ZM112.551 44.0002H100.593V46.0002H112.551V44.0002ZM101.593 45.0002V0.740479H99.5933V45.0002H101.593ZM100.593 1.74048H115.094V-0.259521H100.593V1.74048ZM114.913 8.79224H112.551V10.7922H114.913V8.79224ZM111.551 9.79224V19.9036H113.551V9.79224H111.551ZM112.551 20.9036H114.792V18.9036H112.551V20.9036ZM114.792 20.9036C116.772 20.9036 118.49 20.4677 119.87 19.5158L118.735 17.8694C117.774 18.5322 116.484 18.9036 114.792 18.9036V20.9036ZM119.87 19.5158C121.421 18.4459 122.058 16.6096 122.058 14.3635H120.058C120.058 16.275 119.524 17.3248 118.735 17.8694L119.87 19.5158ZM122.058 14.3635C122.058 12.6792 121.475 11.2595 120.245 10.235L118.965 11.7714C119.673 12.3614 120.058 13.182 120.058 14.3635H122.058ZM120.245 10.235C119.007 9.20322 117.154 8.79224 114.913 8.79224V10.7922C116.99 10.7922 118.265 11.1885 118.965 11.7714L120.245 10.235ZM188.263 38.4006L189.133 38.8932L189.135 38.8897L188.263 38.4006ZM182.602 43.6077L182.14 42.7203L182.138 42.7218L182.602 43.6077ZM167.404 45.3333L167.285 46.3261L167.287 46.3263L167.404 45.3333ZM163.166 44.4553L162.859 45.407L162.872 45.4111L163.166 44.4553ZM159.079 42.8206H158.079V43.4547L158.653 43.7251L159.079 42.8206ZM159.079 32.1643L159.529 31.2714L158.079 30.5402V32.1643H159.079ZM166.345 34.9495L166.089 35.9163L166.097 35.9182L166.345 34.9495ZM175.881 35.4641L175.535 34.5257L175.527 34.5288L175.881 35.4641ZM177.576 34.3137L178.376 34.9137L178.382 34.9059L178.388 34.898L177.576 34.3137ZM177.304 30.6506L176.583 31.3443L176.597 31.3579L176.61 31.371L177.304 30.6506ZM174.761 28.9553L174.314 29.8498L174.761 28.9553ZM170.129 26.7756L169.704 27.681L169.717 27.6867L170.129 26.7756ZM165.679 24.4143L165.155 25.266L165.16 25.2695L165.679 24.4143ZM162.288 21.6594L161.539 22.322L161.546 22.3296L161.553 22.3371L162.288 21.6594ZM161.471 5.91724L160.663 5.32806L160.662 5.32957L161.471 5.91724ZM167.344 1.55786L166.985 0.624319L166.983 0.625294L167.344 1.55786ZM183.843 1.07349L183.573 2.03628L183.575 2.03688L183.843 1.07349ZM190.079 3.28345L191.009 3.65221L191.361 2.76416L190.49 2.37171L190.079 3.28345ZM186.416 12.5168L186 13.4262L186.957 13.8641L187.346 12.8856L186.416 12.5168ZM180.815 10.4583L180.541 11.4198L180.551 11.4225L180.815 10.4583ZM173.156 10.0647L173.507 11.001L173.515 10.9981L173.523 10.9951L173.156 10.0647ZM171.703 11.0637L170.908 10.4577L170.898 10.4699L170.889 10.4825L171.703 11.0637ZM172.036 14.3635L171.316 15.0572L171.322 15.064L171.329 15.0706L172.036 14.3635ZM174.731 16.1497L174.272 17.0383L174.28 17.0427L174.289 17.0469L174.731 16.1497ZM179.907 18.6018L179.487 19.5093L179.498 19.5142L179.907 18.6018ZM185.417 21.7502L184.819 22.5516L184.826 22.5566L185.417 21.7502ZM188.868 25.7766L187.974 26.2238L187.977 26.2307L187.981 26.2376L188.868 25.7766ZM189.079 31.5588C189.079 33.7838 188.52 35.8966 187.391 37.9115L189.135 38.8897C190.427 36.5856 191.079 34.1372 191.079 31.5588H189.079ZM187.392 37.908C186.293 39.8513 184.563 41.4616 182.14 42.7203L183.063 44.495C185.767 43.0897 187.811 41.2287 189.133 38.8932L187.392 37.908ZM182.138 42.7218C179.784 43.9547 176.669 44.6057 172.732 44.6057V46.6057C176.869 46.6057 180.333 45.9247 183.066 44.4935L182.138 42.7218ZM172.732 44.6057C170.742 44.6057 169.007 44.5161 167.522 44.3402L167.287 46.3263C168.869 46.5137 170.686 46.6057 172.732 46.6057V44.6057ZM167.523 44.3404C166.063 44.1651 164.709 43.8838 163.46 43.4995L162.872 45.4111C164.247 45.8341 165.719 46.1381 167.285 46.3261L167.523 44.3404ZM163.473 43.5038C162.207 43.0946 160.885 42.5662 159.506 41.916L158.653 43.7251C160.099 44.407 161.501 44.9683 162.859 45.4069L163.473 43.5038ZM160.079 42.8206V32.1643H158.079V42.8206H160.079ZM158.629 33.0572C161.089 34.2975 163.576 35.2515 166.089 35.9162L166.6 33.9827C164.23 33.3558 161.873 32.453 159.529 31.2714L158.629 33.0572ZM166.097 35.9182C168.599 36.5592 170.894 36.8879 172.975 36.8879V34.8879C171.1 34.8879 168.975 34.591 166.593 33.9808L166.097 35.9182ZM172.975 36.8879C174.233 36.8879 175.334 36.7403 176.235 36.3994L175.527 34.5288C174.935 34.753 174.098 34.8879 172.975 34.8879V36.8879ZM176.227 36.4025C177.113 36.0759 177.863 35.5975 178.376 34.9137L176.776 33.7137C176.563 33.9987 176.183 34.2872 175.535 34.5258L176.227 36.4025ZM178.388 34.898C178.879 34.2164 179.121 33.435 179.121 32.5881H177.121C177.121 33.0329 177 33.402 176.765 33.7294L178.388 34.898ZM179.121 32.5881C179.121 31.5537 178.741 30.6465 177.997 29.9303L176.61 31.371C176.956 31.7043 177.121 32.0887 177.121 32.5881H179.121ZM178.024 29.957C177.383 29.2913 176.417 28.6656 175.208 28.0609L174.314 29.8498C175.445 30.4156 176.175 30.9201 176.583 31.3443L178.024 29.957ZM175.208 28.0609C174.021 27.4675 172.464 26.735 170.541 25.8646L169.717 27.6867C171.628 28.552 173.159 29.2726 174.314 29.8498L175.208 28.0609ZM170.554 25.8703C168.946 25.1161 167.494 24.3454 166.197 23.5591L165.16 25.2695C166.527 26.0978 168.042 26.9013 169.704 27.681L170.554 25.8703ZM166.203 23.5626C164.961 22.7986 163.904 21.9373 163.023 20.9817L161.553 22.3371C162.569 23.4402 163.773 24.4154 165.155 25.266L166.203 23.5626ZM163.037 20.9968C162.197 20.047 161.543 18.9367 161.079 17.6557L159.199 18.337C159.743 19.8411 160.523 21.1729 161.539 22.322L163.037 20.9968ZM161.079 17.6557C160.623 16.3981 160.382 14.8738 160.382 13.0618H158.382C158.382 15.044 158.645 16.8094 159.199 18.337L161.079 17.6557ZM160.382 13.0618C160.382 10.3838 161.035 8.21931 162.28 6.5049L160.662 5.32957C159.122 7.4498 158.382 10.0484 158.382 13.0618H160.382ZM162.279 6.50641C163.565 4.74189 165.359 3.39846 167.705 2.49043L166.983 0.625294C164.323 1.65476 162.202 3.21758 160.663 5.32806L162.279 6.50641ZM167.702 2.4914C170.089 1.57498 172.87 1.10474 176.063 1.10474V-0.895264C172.676 -0.895264 169.644 -0.396759 166.985 0.624323L167.702 2.4914ZM176.063 1.10474C178.876 1.10474 181.376 1.41962 183.573 2.03627L184.113 0.110699C181.708 -0.564316 179.022 -0.895264 176.063 -0.895264V1.10474ZM183.575 2.03688C185.856 2.67168 187.886 3.39208 189.668 4.19518L190.49 2.37171C188.599 1.51986 186.472 0.76696 184.111 0.110088L183.575 2.03688ZM189.15 2.91469L185.487 12.1481L187.346 12.8856L191.009 3.65221L189.15 2.91469ZM186.832 11.6075C184.891 10.7194 182.973 10.014 181.08 9.49398L180.551 11.4225C182.331 11.9116 184.147 12.5786 186 13.4262L186.832 11.6075ZM181.09 9.49673C179.183 8.9517 177.384 8.67114 175.699 8.67114V10.6711C177.163 10.6711 178.775 10.9153 180.541 11.4198L181.09 9.49673ZM175.699 8.67114C174.595 8.67114 173.612 8.8105 172.79 9.13429L173.523 10.9951C174.033 10.7942 174.745 10.6711 175.699 10.6711V8.67114ZM172.805 9.12837C172.034 9.41749 171.374 9.84597 170.908 10.4577L172.499 11.6698C172.678 11.4338 172.987 11.1963 173.507 11.001L172.805 9.12837ZM170.889 10.4825C170.46 11.0841 170.249 11.7738 170.249 12.5168H172.249C172.249 12.1701 172.341 11.891 172.517 11.645L170.889 10.4825ZM170.249 12.5168C170.249 13.4893 170.632 14.3467 171.316 15.0572L172.757 13.6699C172.391 13.2905 172.249 12.9168 172.249 12.5168H170.249ZM171.329 15.0706C171.984 15.7256 172.991 16.3774 174.272 17.0383L175.189 15.261C173.967 14.6302 173.178 14.0913 172.743 13.6564L171.329 15.0706ZM174.289 17.0469C175.571 17.6776 177.304 18.4988 179.487 19.5093L180.327 17.6943C178.151 16.6866 176.433 15.873 175.172 15.2524L174.289 17.0469ZM179.498 19.5142C181.607 20.4601 183.376 21.4745 184.819 22.5515L186.015 20.949C184.43 19.7655 182.527 18.681 180.317 17.6894L179.498 19.5142ZM184.826 22.5566C186.22 23.5791 187.262 24.8011 187.974 26.2238L189.763 25.3294C188.9 23.6037 187.641 22.1414 186.008 20.9438L184.826 22.5566ZM187.981 26.2376C188.695 27.6116 189.079 29.37 189.079 31.5588H191.079C191.079 29.1461 190.656 27.0497 189.756 25.3156L187.981 26.2376ZM226.073 4.40356L225.414 5.15547L225.416 5.15782L226.073 4.40356ZM229.403 20.6301L228.449 20.3295L228.446 20.339L229.403 20.6301ZM226.588 25.595L225.845 24.9248L225.84 24.9306L226.588 25.595ZM221.411 29.0461L221.046 28.1153L221.043 28.1165L221.411 29.0461ZM210.119 30.3176V29.3176H209.119V30.3176H210.119ZM210.119 45.0002V46.0002H211.119V45.0002H210.119ZM198.161 45.0002H197.161V46.0002H198.161V45.0002ZM198.161 0.740479V-0.259521H197.161V0.740479H198.161ZM210.119 10.3977V9.39771H209.119V10.3977H210.119ZM210.119 20.5696H209.119V21.5696H210.119V20.5696ZM215.356 20.0549L215.717 20.9877L215.726 20.9842L215.735 20.9805L215.356 20.0549ZM217.475 18.3293L216.647 17.7699L216.643 17.7746L217.475 18.3293ZM217.052 11.7297L216.32 12.4115L216.328 12.4198L217.052 11.7297ZM213.479 1.74048C218.968 1.74048 222.885 2.93809 225.414 5.15547L226.732 3.65166C223.691 0.984924 219.212 -0.259521 213.479 -0.259521V1.74048ZM225.416 5.15782C227.958 7.37034 229.281 10.5399 229.281 14.8176H231.281C231.281 10.0941 229.799 6.3209 226.73 3.64931L225.416 5.15782ZM229.281 14.8176C229.281 16.7376 229.003 18.5735 228.449 20.3295L230.357 20.9308C230.974 18.9732 231.281 16.9341 231.281 14.8176H229.281ZM228.446 20.339C227.924 22.054 227.06 23.5798 225.845 24.9249L227.33 26.2651C228.739 24.7039 229.752 22.9198 230.36 20.9213L228.446 20.339ZM225.84 24.9306C224.672 26.2454 223.087 27.3141 221.046 28.1153L221.776 29.977C224.054 29.0829 225.92 27.8508 227.335 26.2593L225.84 24.9306ZM221.043 28.1165C219.055 28.904 216.545 29.3176 213.479 29.3176V31.3176C216.71 31.3176 219.488 30.8836 221.779 29.9758L221.043 28.1165ZM213.479 29.3176H210.119V31.3176H213.479V29.3176ZM209.119 30.3176V45.0002H211.119V30.3176H209.119ZM210.119 44.0002H198.161V46.0002H210.119V44.0002ZM199.161 45.0002V0.740479H197.161V45.0002H199.161ZM198.161 1.74048H213.479V-0.259521H198.161V1.74048ZM213.207 9.39771H210.119V11.3977H213.207V9.39771ZM209.119 10.3977V20.5696H211.119V10.3977H209.119ZM210.119 21.5696H212.48V19.5696H210.119V21.5696ZM212.48 21.5696C213.623 21.5696 214.705 21.3787 215.717 20.9877L214.996 19.1221C214.232 19.4173 213.396 19.5696 212.48 19.5696V21.5696ZM215.735 20.9805C216.805 20.5428 217.67 19.8398 218.307 18.884L216.643 17.7746C216.231 18.3932 215.684 18.8405 214.978 19.1294L215.735 20.9805ZM218.304 18.8888C218.995 17.8657 219.293 16.5805 219.293 15.1204H217.293C217.293 16.3243 217.046 17.1784 216.647 17.7699L218.304 18.8888ZM219.293 15.1204C219.293 13.5153 218.809 12.1234 217.775 11.0397L216.328 12.4198C216.949 13.0718 217.293 13.9403 217.293 15.1204H219.293ZM217.783 11.048C216.697 9.88256 215.099 9.39771 213.207 9.39771V11.3977C214.786 11.3977 215.751 11.8009 216.32 12.4115L217.783 11.048ZM278.748 32.134L277.788 31.8511L277.787 31.8556L278.748 32.134ZM268.243 44.0012L268.608 44.9321L268.614 44.9297L268.243 44.0012ZM248.807 44.0012L248.433 44.9288L248.442 44.9321L248.807 44.0012ZM242.117 39.3694L241.362 40.0258L241.366 40.0295L242.117 39.3694ZM239.211 10.761L238.298 10.3508L238.297 10.3533L239.211 10.761ZM246.294 2.85962L246.798 3.7238L246.802 3.72141L246.294 2.85962ZM270.816 2.85962L270.304 3.71857L270.306 3.72L270.816 2.85962ZM277.779 10.7913L276.861 11.1878L277.779 10.7913ZM250.442 29.6819L249.488 29.983L250.442 29.6819ZM263.702 34.1018L263.084 33.315L263.079 33.3197L263.702 34.1018ZM266.517 29.6819L265.561 29.3899L265.558 29.3992L266.517 29.6819ZM265.397 13.3342L264.53 13.832L265.397 13.3342ZM253.288 11.427L252.669 10.6415L252.663 10.6461L253.288 11.427ZM250.412 15.9075L249.457 15.6092L249.454 15.6183L250.412 15.9075ZM278.989 22.8098C278.989 26.1403 278.585 29.1514 277.788 31.8511L279.707 32.4169C280.565 29.506 280.989 26.3009 280.989 22.8098H278.989ZM277.787 31.8556C277.016 34.5156 275.809 36.7869 274.175 38.6871L275.691 39.9911C277.529 37.8549 278.865 35.3227 279.708 32.4124L277.787 31.8556ZM274.175 38.6871C272.555 40.5713 270.462 42.0364 267.871 43.0727L268.614 44.9297C271.472 43.7864 273.84 42.1434 275.691 39.9911L274.175 38.6871ZM267.877 43.0704C265.298 44.083 262.169 44.6057 258.464 44.6057V46.6057C262.348 46.6057 265.738 46.0587 268.608 44.9321L267.877 43.0704ZM258.464 44.6057C254.844 44.6057 251.754 44.0839 249.173 43.0704L248.442 44.9321C251.309 46.0579 254.658 46.6057 258.464 46.6057V44.6057ZM249.181 43.0737C246.607 42.0366 244.511 40.5789 242.868 38.7093L241.366 40.0295C243.234 42.1559 245.598 43.7862 248.433 44.9287L249.181 43.0737ZM242.871 38.713C241.217 36.8113 239.979 34.5278 239.169 31.8448L237.254 32.4233C238.139 35.3509 239.505 37.891 241.362 40.0257L242.871 38.713ZM239.169 31.8448C238.354 29.1482 237.94 26.1194 237.94 22.7493H235.94C235.94 26.2815 236.374 29.5092 237.254 32.4233L239.169 31.8448ZM237.94 22.7493C237.94 18.2555 238.679 14.4042 240.124 11.1686L238.297 10.3533C236.714 13.8991 235.94 18.0399 235.94 22.7493H237.94ZM240.123 11.1711C241.572 7.94785 243.792 5.47407 246.798 3.72379L245.791 1.99544C242.42 3.95871 239.917 6.75251 238.298 10.3508L240.123 11.1711ZM246.802 3.72141C249.793 1.96077 253.68 1.04419 258.525 1.04419V-0.955811C253.441 -0.955811 249.174 0.00456238 245.787 1.99783L246.802 3.72141ZM258.525 1.04419C263.455 1.04419 267.358 1.96236 270.304 3.71857L271.328 2.00067C267.977 0.00297165 263.686 -0.955811 258.525 -0.955811V1.04419ZM270.306 3.72C273.292 5.48831 275.47 7.969 276.861 11.1878L278.697 10.3947C277.141 6.79191 274.678 3.98483 271.326 1.99924L270.306 3.72ZM276.861 11.1878C278.269 14.4473 278.989 18.3131 278.989 22.8098H280.989C280.989 18.1034 280.236 13.9568 278.697 10.3947L276.861 11.1878ZM248.534 22.8098C248.534 25.5449 248.844 27.9425 249.488 29.983L251.396 29.3808C250.829 27.5866 250.534 25.4028 250.534 22.8098H248.534ZM249.488 29.983C250.142 32.0522 251.2 33.7113 252.701 34.8885L253.935 33.3151C252.812 32.4338 251.953 31.1462 251.396 29.3808L249.488 29.983ZM252.701 34.8885C254.232 36.0897 256.183 36.6458 258.464 36.6458V34.6458C256.508 34.6458 255.028 34.1725 253.935 33.3151L252.701 34.8885ZM258.464 36.6458C260.815 36.6458 262.805 36.0949 264.325 34.8839L263.079 33.3197C262.015 34.1673 260.513 34.6458 258.464 34.6458V36.6458ZM264.319 34.8885C265.825 33.707 266.864 32.0408 267.476 29.9646L265.558 29.3992C265.04 31.1576 264.202 32.438 263.084 33.3151L264.319 34.8885ZM267.474 29.9738C268.095 27.9366 268.395 25.5424 268.395 22.8098H266.395C266.395 25.4053 266.109 27.5925 265.561 29.3899L267.474 29.9738ZM268.395 22.8098C268.395 18.7189 267.716 15.3657 266.264 12.8365L264.53 13.832C265.742 15.9447 266.395 18.9085 266.395 22.8098H268.395ZM266.264 12.8365C264.713 10.1337 262.042 8.85278 258.525 8.85278V10.8528C261.506 10.8528 263.417 11.8928 264.53 13.832L266.264 12.8365ZM258.525 8.85278C256.203 8.85278 254.221 9.41889 252.669 10.6415L253.907 12.2125C255.019 11.3362 256.528 10.8528 258.525 10.8528V8.85278ZM252.663 10.6461C251.166 11.844 250.11 13.5217 249.457 15.6092L251.366 16.2057C251.925 14.4182 252.786 13.109 253.912 12.2079L252.663 10.6461ZM249.454 15.6183C248.833 17.6738 248.534 20.0768 248.534 22.8098H250.534C250.534 20.2147 250.819 18.0161 251.369 16.1966L249.454 15.6183ZM331.362 45.0002V46.0002H332.362V45.0002H331.362ZM315.68 45.0002L314.792 45.4605L315.072 46.0002H315.68V45.0002ZM299.514 13.8186L300.402 13.3583L300.122 12.8186H299.514V13.8186ZM299.242 13.8186V12.8186H298.129L298.247 13.9244L299.242 13.8186ZM299.726 21.3264L298.727 21.3699L298.727 21.3705L299.726 21.3264ZM299.817 45.0002V46.0002H300.817V45.0002H299.817ZM289.221 45.0002H288.221V46.0002H289.221V45.0002ZM289.221 0.740479V-0.259521H288.221V0.740479H289.221ZM304.842 0.740479L305.728 0.276602L305.447 -0.259521H304.842V0.740479ZM320.948 31.4983L320.062 31.9622L320.342 32.4983H320.948V31.4983ZM321.129 31.4983V32.4983H322.194L322.127 31.4359L321.129 31.4983ZM320.948 28.1379L319.949 28.1848L319.949 28.1855L320.948 28.1379ZM320.766 24.2327L319.766 24.2634L319.767 24.2711L319.767 24.2788L320.766 24.2327ZM320.705 0.740479V-0.259521H319.705V0.740479H320.705ZM331.362 0.740479H332.362V-0.259521H331.362V0.740479ZM331.362 44.0002H315.68V46.0002H331.362V44.0002ZM316.568 44.54L300.402 13.3583L298.626 14.2789L314.792 45.4605L316.568 44.54ZM299.514 12.8186H299.242V14.8186H299.514V12.8186ZM298.247 13.9244C298.346 14.8533 298.436 15.9776 298.516 17.3L300.512 17.179C300.431 15.8373 300.339 14.681 300.236 13.7128L298.247 13.9244ZM298.516 17.3C298.596 18.6261 298.667 19.9827 298.727 21.3699L300.725 21.283C300.664 19.885 300.593 18.517 300.512 17.179L298.516 17.3ZM298.727 21.3705C298.787 22.7315 298.817 23.9577 298.817 25.05H300.817C300.817 23.9224 300.786 22.6661 300.725 21.2823L298.727 21.3705ZM298.817 25.05V45.0002H300.817V25.05H298.817ZM299.817 44.0002H289.221V46.0002H299.817V44.0002ZM290.221 45.0002V0.740479H288.221V45.0002H290.221ZM289.221 1.74048H304.842V-0.259521H289.221V1.74048ZM303.956 1.20436L320.062 31.9622L321.833 31.0344L305.728 0.276602L303.956 1.20436ZM320.948 32.4983H321.129V30.4983H320.948V32.4983ZM322.127 31.4359C322.067 30.4733 322.007 29.3583 321.946 28.0904L319.949 28.1855C320.009 29.4605 320.07 30.5857 320.131 31.5607L322.127 31.4359ZM321.946 28.0911C321.886 26.7997 321.825 25.4982 321.765 24.1866L319.767 24.2788C319.828 25.5909 319.888 26.8929 319.949 28.1848L321.946 28.0911ZM321.765 24.2019C321.725 22.8975 321.705 21.7476 321.705 20.7512H319.705C319.705 21.7731 319.726 22.9442 319.766 24.2634L321.765 24.2019ZM321.705 20.7512V0.740479H319.705V20.7512H321.705ZM320.705 1.74048H331.362V-0.259521H320.705V1.74048ZM330.362 0.740479V45.0002H332.362V0.740479H330.362ZM369.293 38.4006L370.163 38.8932L370.165 38.8897L369.293 38.4006ZM363.632 43.6077L363.171 42.7203L363.168 42.7218L363.632 43.6077ZM348.435 45.3333L348.316 46.3261L348.317 46.3263L348.435 45.3333ZM344.196 44.4553L343.889 45.407L343.902 45.4111L344.196 44.4553ZM340.109 42.8206H339.109V43.4547L339.683 43.7251L340.109 42.8206ZM340.109 32.1643L340.56 31.2714L339.109 30.5402V32.1643H340.109ZM347.375 34.9495L347.119 35.9163L347.127 35.9182L347.375 34.9495ZM356.911 35.4641L356.565 34.5257L356.557 34.5288L356.911 35.4641ZM358.607 34.3137L359.407 34.9137L359.412 34.9059L359.418 34.898L358.607 34.3137ZM358.334 30.6506L357.614 31.3443L357.627 31.3579L357.64 31.371L358.334 30.6506ZM355.791 28.9553L355.344 29.8498L355.791 28.9553ZM351.159 26.7756L350.734 27.681L350.747 27.6867L351.159 26.7756ZM346.709 24.4143L346.185 25.266L346.191 25.2695L346.709 24.4143ZM343.318 21.6594L342.569 22.322L342.576 22.3296L342.583 22.3371L343.318 21.6594ZM342.501 5.91724L341.693 5.32806L341.692 5.32957L342.501 5.91724ZM348.374 1.55786L348.016 0.624319L348.013 0.625294L348.374 1.55786ZM364.873 1.07349L364.603 2.03628L364.605 2.03688L364.873 1.07349ZM371.109 3.28345L372.039 3.65221L372.391 2.76416L371.52 2.37171L371.109 3.28345ZM367.446 12.5168L367.03 13.4262L367.988 13.8641L368.376 12.8856L367.446 12.5168ZM361.846 10.4583L361.571 11.4198L361.581 11.4225L361.846 10.4583ZM354.187 10.0647L354.538 11.001L354.545 10.9981L354.553 10.9951L354.187 10.0647ZM352.733 11.0637L351.938 10.4577L351.929 10.4699L351.92 10.4825L352.733 11.0637ZM353.066 14.3635L352.346 15.0572L352.353 15.064L352.359 15.0706L353.066 14.3635ZM355.761 16.1497L355.302 17.0383L355.311 17.0427L355.319 17.0469L355.761 16.1497ZM360.938 18.6018L360.517 19.5093L360.528 19.5142L360.938 18.6018ZM366.447 21.7502L365.849 22.5516L365.856 22.5566L366.447 21.7502ZM369.899 25.7766L369.004 26.2238L369.008 26.2307L369.011 26.2376L369.899 25.7766ZM370.109 31.5588C370.109 33.7838 369.551 35.8966 368.421 37.9115L370.165 38.8897C371.457 36.5856 372.109 34.1372 372.109 31.5588H370.109ZM368.423 37.908C367.323 39.8513 365.593 41.4616 363.171 42.7203L364.093 44.495C366.797 43.0897 368.841 41.2287 370.163 38.8932L368.423 37.908ZM363.168 42.7218C360.814 43.9547 357.699 44.6057 353.763 44.6057V46.6057C357.899 46.6057 361.364 45.9247 364.096 44.4935L363.168 42.7218ZM353.763 44.6057C351.773 44.6057 350.037 44.5161 348.552 44.3402L348.317 46.3263C349.9 46.5137 351.716 46.6057 353.763 46.6057V44.6057ZM348.554 44.3404C347.093 44.1651 345.739 43.8838 344.49 43.4995L343.902 45.4111C345.277 45.8341 346.749 46.1381 348.316 46.3261L348.554 44.3404ZM344.504 43.5038C343.238 43.0946 341.915 42.5662 340.536 41.916L339.683 43.7251C341.129 44.407 342.532 44.9683 343.889 45.4069L344.504 43.5038ZM341.109 42.8206V32.1643H339.109V42.8206H341.109ZM339.659 33.0572C342.119 34.2975 344.606 35.2515 347.119 35.9162L347.631 33.9827C345.26 33.3558 342.903 32.453 340.56 31.2714L339.659 33.0572ZM347.127 35.9182C349.629 36.5592 351.924 36.8879 354.005 36.8879V34.8879C352.13 34.8879 350.005 34.591 347.623 33.9808L347.127 35.9182ZM354.005 36.8879C355.263 36.8879 356.364 36.7403 357.265 36.3994L356.557 34.5288C355.965 34.753 355.129 34.8879 354.005 34.8879V36.8879ZM357.257 36.4025C358.143 36.0759 358.894 35.5975 359.407 34.9137L357.807 33.7137C357.593 33.9987 357.213 34.2872 356.566 34.5258L357.257 36.4025ZM359.418 34.898C359.909 34.2164 360.151 33.435 360.151 32.5881H358.151C358.151 33.0329 358.031 33.402 357.795 33.7294L359.418 34.898ZM360.151 32.5881C360.151 31.5537 359.771 30.6465 359.028 29.9303L357.64 31.371C357.987 31.7043 358.151 32.0887 358.151 32.5881H360.151ZM359.054 29.957C358.413 29.2913 357.448 28.6656 356.238 28.0609L355.344 29.8498C356.476 30.4156 357.205 30.9201 357.614 31.3443L359.054 29.957ZM356.238 28.0609C355.051 27.4675 353.495 26.735 351.572 25.8646L350.747 27.6867C352.659 28.552 354.19 29.2726 355.344 29.8498L356.238 28.0609ZM351.584 25.8703C349.976 25.1161 348.525 24.3454 347.227 23.5591L346.191 25.2695C347.557 26.0978 349.073 26.9013 350.735 27.681L351.584 25.8703ZM347.233 23.5626C345.992 22.7986 344.934 21.9373 344.054 20.9817L342.583 22.3371C343.6 23.4402 344.803 24.4154 346.185 25.266L347.233 23.5626ZM344.067 20.9968C343.227 20.047 342.573 18.9367 342.109 17.6557L340.229 18.337C340.774 19.8411 341.553 21.1729 342.569 22.322L344.067 20.9968ZM342.109 17.6557C341.654 16.3981 341.412 14.8738 341.412 13.0618H339.412C339.412 15.044 339.675 16.8094 340.229 18.337L342.109 17.6557ZM341.412 13.0618C341.412 10.3838 342.065 8.21931 343.31 6.5049L341.692 5.32957C340.152 7.4498 339.412 10.0484 339.412 13.0618H341.412ZM343.309 6.50641C344.596 4.74189 346.389 3.39846 348.735 2.49043L348.013 0.625294C345.354 1.65476 343.232 3.21758 341.693 5.32806L343.309 6.50641ZM348.733 2.4914C351.119 1.57498 353.9 1.10474 357.093 1.10474V-0.895264C353.706 -0.895264 350.675 -0.396759 348.016 0.624323L348.733 2.4914ZM357.093 1.10474C359.906 1.10474 362.406 1.41962 364.603 2.03627L365.143 0.110699C362.739 -0.564316 360.052 -0.895264 357.093 -0.895264V1.10474ZM364.605 2.03688C366.886 2.67168 368.916 3.39208 370.699 4.19518L371.52 2.37171C369.63 1.51986 367.502 0.76696 365.141 0.110088L364.605 2.03688ZM370.18 2.91469L366.517 12.1481L368.376 12.8856L372.039 3.65221L370.18 2.91469ZM367.862 11.6075C365.921 10.7194 364.004 10.014 362.111 9.49398L361.581 11.4225C363.361 11.9116 365.177 12.5786 367.03 13.4262L367.862 11.6075ZM362.121 9.49673C360.213 8.9517 358.414 8.67114 356.73 8.67114V10.6711C358.194 10.6711 359.806 10.9153 361.571 11.4198L362.121 9.49673ZM356.73 8.67114C355.625 8.67114 354.642 8.8105 353.82 9.13429L354.553 10.9951C355.063 10.7942 355.775 10.6711 356.73 10.6711V8.67114ZM353.835 9.12837C353.065 9.41749 352.404 9.84597 351.938 10.4577L353.529 11.6698C353.709 11.4338 354.017 11.1963 354.538 11.001L353.835 9.12837ZM351.92 10.4825C351.49 11.0841 351.279 11.7738 351.279 12.5168H353.279C353.279 12.1701 353.371 11.891 353.547 11.645L351.92 10.4825ZM351.279 12.5168C351.279 13.4893 351.662 14.3467 352.346 15.0572L353.787 13.6699C353.421 13.2905 353.279 12.9168 353.279 12.5168H351.279ZM352.359 15.0706C353.014 15.7256 354.022 16.3774 355.302 17.0383L356.219 15.261C354.997 14.6302 354.208 14.0913 353.774 13.6564L352.359 15.0706ZM355.319 17.0469C356.601 17.6776 358.335 18.4988 360.517 19.5093L361.358 17.6943C359.181 16.6866 357.464 15.873 356.202 15.2524L355.319 17.0469ZM360.528 19.5142C362.637 20.4601 364.407 21.4745 365.849 22.5515L367.046 20.949C365.461 19.7655 363.557 18.681 361.347 17.6894L360.528 19.5142ZM365.856 22.5566C367.25 23.5791 368.293 24.8011 369.004 26.2238L370.793 25.3294C369.93 23.6037 368.672 22.1414 367.039 20.9438L365.856 22.5566ZM369.011 26.2376C369.725 27.6116 370.109 29.37 370.109 31.5588H372.109C372.109 29.1461 371.687 27.0497 370.786 25.3156L369.011 26.2376ZM419.364 32.134L418.405 31.8511L418.404 31.8556L419.364 32.134ZM408.859 44.0012L409.225 44.9321L409.231 44.9297L408.859 44.0012ZM389.424 44.0012L389.05 44.9288L389.058 44.9321L389.424 44.0012ZM382.733 39.3694L381.979 40.0258L381.982 40.0295L382.733 39.3694ZM379.827 10.761L378.915 10.3508L378.914 10.3533L379.827 10.761ZM386.911 2.85962L387.414 3.7238L387.418 3.72141L386.911 2.85962ZM411.432 2.85962L410.92 3.71857L410.923 3.72L411.432 2.85962ZM418.395 10.7913L417.477 11.1878L418.395 10.7913ZM391.058 29.6819L390.105 29.983L391.058 29.6819ZM404.318 34.1018L403.701 33.315L403.695 33.3197L404.318 34.1018ZM407.134 29.6819L406.177 29.3899L406.174 29.3992L407.134 29.6819ZM406.014 13.3342L405.146 13.832L406.014 13.3342ZM393.904 11.427L393.285 10.6415L393.279 10.6461L393.904 11.427ZM391.028 15.9075L390.074 15.6092L390.071 15.6183L391.028 15.9075ZM419.605 22.8098C419.605 26.1403 419.201 29.1514 418.405 31.8511L420.323 32.4169C421.182 29.506 421.605 26.3009 421.605 22.8098H419.605ZM418.404 31.8556C417.633 34.5156 416.426 36.7869 414.791 38.6871L416.308 39.9911C418.145 37.8549 419.481 35.3227 420.325 32.4124L418.404 31.8556ZM414.791 38.6871C413.171 40.5713 411.079 42.0364 408.488 43.0727L409.231 44.9297C412.089 43.7864 414.457 42.1434 416.308 39.9911L414.791 38.6871ZM408.494 43.0704C405.914 44.083 402.785 44.6057 399.081 44.6057V46.6057C402.965 46.6057 406.355 46.0587 409.225 44.9321L408.494 43.0704ZM399.081 44.6057C395.46 44.6057 392.371 44.0839 389.789 43.0704L389.058 44.9321C391.926 46.0579 395.275 46.6057 399.081 46.6057V44.6057ZM389.797 43.0737C387.224 42.0366 385.127 40.5789 383.484 38.7093L381.982 40.0295C383.851 42.1559 386.215 43.7862 389.05 44.9287L389.797 43.0737ZM383.488 38.713C381.833 36.8113 380.596 34.5278 379.785 31.8448L377.871 32.4233C378.755 35.3509 380.122 37.891 381.979 40.0257L383.488 38.713ZM379.785 31.8448C378.97 29.1482 378.556 26.1194 378.556 22.7493H376.556C376.556 26.2815 376.99 29.5092 377.871 32.4233L379.785 31.8448ZM378.556 22.7493C378.556 18.2555 379.296 14.4042 380.74 11.1686L378.914 10.3533C377.331 13.8991 376.556 18.0399 376.556 22.7493H378.556ZM380.739 11.1711C382.189 7.94785 384.408 5.47407 387.414 3.72379L386.408 1.99544C383.036 3.95871 380.533 6.75251 378.915 10.3508L380.739 11.1711ZM387.418 3.72141C390.409 1.96077 394.296 1.04419 399.141 1.04419V-0.955811C394.057 -0.955811 389.79 0.00456238 386.404 1.99783L387.418 3.72141ZM399.141 1.04419C404.072 1.04419 407.975 1.96236 410.92 3.71857L411.945 2.00067C408.594 0.00297165 404.302 -0.955811 399.141 -0.955811V1.04419ZM410.923 3.72C413.908 5.48831 416.087 7.969 417.477 11.1878L419.313 10.3947C417.757 6.79191 415.294 3.98483 411.942 1.99924L410.923 3.72ZM417.477 11.1878C418.885 14.4473 419.605 18.3131 419.605 22.8098H421.605C421.605 18.1034 420.852 13.9568 419.313 10.3947L417.477 11.1878ZM389.15 22.8098C389.15 25.5449 389.46 27.9425 390.105 29.983L392.012 29.3808C391.445 27.5866 391.15 25.4028 391.15 22.8098H389.15ZM390.105 29.983C390.758 32.0522 391.817 33.7113 393.317 34.8885L394.552 33.3151C393.428 32.4338 392.57 31.1462 392.012 29.3808L390.105 29.983ZM393.317 34.8885C394.848 36.0897 396.799 36.6458 399.081 36.6458V34.6458C397.124 34.6458 395.644 34.1725 394.552 33.3151L393.317 34.8885ZM399.081 36.6458C401.432 36.6458 403.422 36.0949 404.941 34.8839L403.695 33.3197C402.631 34.1673 401.13 34.6458 399.081 34.6458V36.6458ZM404.935 34.8885C406.441 33.707 407.481 32.0408 408.093 29.9646L406.174 29.3992C405.656 31.1576 404.819 32.438 403.701 33.3151L404.935 34.8885ZM408.09 29.9738C408.712 27.9366 409.012 25.5424 409.012 22.8098H407.012C407.012 25.4053 406.726 27.5925 406.177 29.3899L408.09 29.9738ZM409.012 22.8098C409.012 18.7189 408.332 15.3657 406.881 12.8365L405.146 13.832C406.359 15.9447 407.012 18.9085 407.012 22.8098H409.012ZM406.881 12.8365C405.33 10.1337 402.659 8.85278 399.141 8.85278V10.8528C402.123 10.8528 404.033 11.8928 405.146 13.832L406.881 12.8365ZM399.141 8.85278C396.82 8.85278 394.837 9.41889 393.285 10.6415L394.523 12.2125C395.635 11.3362 397.144 10.8528 399.141 10.8528V8.85278ZM393.279 10.6461C391.782 11.844 390.726 13.5217 390.074 15.6092L391.983 16.2057C392.541 14.4182 393.402 13.109 394.529 12.2079L393.279 10.6461ZM390.071 15.6183C389.45 17.6738 389.15 20.0768 389.15 22.8098H391.15C391.15 20.2147 391.436 18.0161 391.985 16.1966L390.071 15.6183ZM454.359 2.22388L454.011 3.16139L454.017 3.16367L454.359 2.22388ZM460.353 6.58325L459.529 7.1498L459.533 7.15557L460.353 6.58325ZM458.87 22.6887L458.15 21.9941L458.15 21.9944L458.87 22.6887ZM454.874 25.7161L454.386 24.843L453.44 25.3713L454.042 26.272L454.874 25.7161ZM467.77 45.0002V46.0002H469.642L468.601 44.4443L467.77 45.0002ZM454.208 45.0002L453.344 45.5037L453.633 46.0002H454.208V45.0002ZM444.823 28.8948L445.687 28.3913L445.398 27.8948H444.823V28.8948ZM441.796 28.8948V27.8948H440.796V28.8948H441.796ZM441.796 45.0002V46.0002H442.796V45.0002H441.796ZM429.837 45.0002H428.837V46.0002H429.837V45.0002ZM429.837 0.740479V-0.259521H428.837V0.740479H429.837ZM441.796 9.79224V8.79224H440.796V9.79224H441.796ZM441.796 19.9036H440.796V20.9036H441.796V19.9036ZM444.338 1.74048C448.281 1.74048 451.494 2.22703 454.011 3.16137L454.707 1.28638C451.896 0.242857 448.428 -0.259521 444.338 -0.259521V1.74048ZM454.017 3.16367C456.527 4.07619 458.338 5.41671 459.529 7.14978L461.177 6.01672C459.705 3.8748 457.519 2.30906 454.701 1.28408L454.017 3.16367ZM459.533 7.15557C460.744 8.89108 461.381 11.0912 461.381 13.8186H463.381C463.381 10.7738 462.666 8.15042 461.173 6.01094L459.533 7.15557ZM461.381 13.8186C461.381 15.501 461.098 17.0045 460.548 18.3428L462.398 19.103C463.059 17.4947 463.381 15.7286 463.381 13.8186H461.381ZM460.548 18.3428C459.992 19.6967 459.195 20.9125 458.15 21.9941L459.589 23.3833C460.805 22.1238 461.744 20.6957 462.398 19.103L460.548 18.3428ZM458.15 21.9944C457.115 23.0666 455.864 24.0176 454.386 24.843L455.361 26.5891C456.991 25.6788 458.404 24.6116 459.589 23.3831L458.15 21.9944ZM454.042 26.272L466.939 45.5561L468.601 44.4443L455.705 25.1602L454.042 26.272ZM467.77 44.0002H454.208V46.0002H467.77V44.0002ZM455.072 44.4968L445.687 28.3913L443.959 29.3982L453.344 45.5037L455.072 44.4968ZM444.823 27.8948H441.796V29.8948H444.823V27.8948ZM440.796 28.8948V45.0002H442.796V28.8948H440.796ZM441.796 44.0002H429.837V46.0002H441.796V44.0002ZM430.837 45.0002V0.740479H428.837V45.0002H430.837ZM429.837 1.74048H444.338V-0.259521H429.837V1.74048ZM444.157 8.79224H441.796V10.7922H444.157V8.79224ZM440.796 9.79224V19.9036H442.796V9.79224H440.796ZM441.796 20.9036H444.036V18.9036H441.796V20.9036ZM444.036 20.9036C446.016 20.9036 447.734 20.4677 449.114 19.5158L447.979 17.8694C447.018 18.5322 445.728 18.9036 444.036 18.9036V20.9036ZM449.114 19.5158C450.666 18.4459 451.302 16.6096 451.302 14.3635H449.302C449.302 16.275 448.768 17.3248 447.979 17.8694L449.114 19.5158ZM451.302 14.3635C451.302 12.6792 450.719 11.2595 449.489 10.235L448.209 11.7714C448.917 12.3614 449.302 13.182 449.302 14.3635H451.302ZM449.489 10.235C448.251 9.20322 446.398 8.79224 444.157 8.79224V10.7922C446.234 10.7922 447.51 11.1885 448.209 11.7714L449.489 10.235ZM500.161 38.4006L501.032 38.8932L501.034 38.8897L500.161 38.4006ZM494.5 43.6077L494.039 42.7203L494.036 42.7218L494.5 43.6077ZM479.303 45.3333L479.184 46.3261L479.186 46.3263L479.303 45.3333ZM475.065 44.4553L474.757 45.407L474.771 45.4111L475.065 44.4553ZM470.978 42.8206H469.978V43.4547L470.551 43.7251L470.978 42.8206ZM470.978 32.1643L471.428 31.2714L469.978 30.5402V32.1643H470.978ZM478.244 34.9495L477.988 35.9163L477.995 35.9182L478.244 34.9495ZM487.78 35.4641L487.434 34.5257L487.426 34.5288L487.78 35.4641ZM489.475 34.3137L490.275 34.9137L490.281 34.9059L490.286 34.898L489.475 34.3137ZM489.203 30.6506L488.482 31.3443L488.495 31.3579L488.509 31.371L489.203 30.6506ZM486.66 28.9553L486.212 29.8498L486.66 28.9553ZM482.028 26.7756L481.603 27.681L481.615 27.6867L482.028 26.7756ZM477.578 24.4143L477.053 25.266L477.059 25.2695L477.578 24.4143ZM474.187 21.6594L473.438 22.322L473.445 22.3296L473.452 22.3371L474.187 21.6594ZM473.37 5.91724L472.561 5.32806L472.56 5.32957L473.37 5.91724ZM479.243 1.55786L478.884 0.624319L478.882 0.625294L479.243 1.55786ZM495.742 1.07349L495.471 2.03628L495.474 2.03688L495.742 1.07349ZM501.978 3.28345L502.907 3.65221L503.26 2.76416L502.389 2.37171L501.978 3.28345ZM498.315 12.5168L497.899 13.4262L498.856 13.8641L499.244 12.8856L498.315 12.5168ZM492.714 10.4583L492.439 11.4198L492.449 11.4225L492.714 10.4583ZM485.055 10.0647L485.406 11.001L485.414 10.9981L485.422 10.9951L485.055 10.0647ZM483.602 11.0637L482.806 10.4577L482.797 10.4699L482.788 10.4825L483.602 11.0637ZM483.935 14.3635L483.215 15.0572L483.221 15.064L483.228 15.0706L483.935 14.3635ZM486.629 16.1497L486.171 17.0383L486.179 17.0427L486.188 17.0469L486.629 16.1497ZM491.806 18.6018L491.386 19.5093L491.397 19.5142L491.806 18.6018ZM497.316 21.7502L496.717 22.5516L496.724 22.5566L497.316 21.7502ZM500.767 25.7766L499.873 26.2238L499.876 26.2307L499.88 26.2376L500.767 25.7766ZM500.978 31.5588C500.978 33.7838 500.419 35.8966 499.289 37.9115L501.034 38.8897C502.326 36.5856 502.978 34.1372 502.978 31.5588H500.978ZM499.291 37.908C498.191 39.8513 496.461 41.4616 494.039 42.7203L494.961 44.495C497.666 43.0897 499.71 41.2287 501.032 38.8932L499.291 37.908ZM494.036 42.7218C491.683 43.9547 488.568 44.6057 484.631 44.6057V46.6057C488.768 46.6057 492.232 45.9247 494.964 44.4935L494.036 42.7218ZM484.631 44.6057C482.641 44.6057 480.906 44.5161 479.421 44.3402L479.186 46.3263C480.768 46.5137 482.585 46.6057 484.631 46.6057V44.6057ZM479.422 44.3404C477.961 44.1651 476.608 43.8838 475.359 43.4995L474.771 45.4111C476.146 45.8341 477.617 46.1381 479.184 46.3261L479.422 44.3404ZM475.372 43.5038C474.106 43.0946 472.783 42.5662 471.404 41.916L470.551 43.7251C471.998 44.407 473.4 44.9683 474.757 45.4069L475.372 43.5038ZM471.978 42.8206V32.1643H469.978V42.8206H471.978ZM470.528 33.0572C472.987 34.2975 475.474 35.2515 477.988 35.9162L478.499 33.9827C476.129 33.3558 473.772 32.453 471.428 31.2714L470.528 33.0572ZM477.995 35.9182C480.497 36.5592 482.793 36.8879 484.873 36.8879V34.8879C482.998 34.8879 480.874 34.591 478.492 33.9808L477.995 35.9182ZM484.873 36.8879C486.131 36.8879 487.233 36.7403 488.134 36.3994L487.426 34.5288C486.833 34.753 485.997 34.8879 484.873 34.8879V36.8879ZM488.125 36.4025C489.012 36.0759 489.762 35.5975 490.275 34.9137L488.675 33.7137C488.461 33.9987 488.082 34.2872 487.434 34.5258L488.125 36.4025ZM490.286 34.898C490.777 34.2164 491.02 33.435 491.02 32.5881H489.02C489.02 33.0329 488.899 33.402 488.663 33.7294L490.286 34.898ZM491.02 32.5881C491.02 31.5537 490.64 30.6465 489.896 29.9303L488.509 31.371C488.855 31.7043 489.02 32.0887 489.02 32.5881H491.02ZM489.923 29.957C489.282 29.2913 488.316 28.6656 487.107 28.0609L486.212 29.8498C487.344 30.4156 488.074 30.9201 488.482 31.3443L489.923 29.957ZM487.107 28.0609C485.92 27.4675 484.363 26.735 482.44 25.8646L481.615 27.6867C483.527 28.552 485.058 29.2726 486.212 29.8498L487.107 28.0609ZM482.452 25.8703C480.845 25.1161 479.393 24.3454 478.096 23.5591L477.059 25.2695C478.426 26.0978 479.941 26.9013 481.603 27.681L482.452 25.8703ZM478.102 23.5626C476.86 22.7986 475.803 21.9373 474.922 20.9817L473.452 22.3371C474.468 23.4402 475.671 24.4154 477.053 25.266L478.102 23.5626ZM474.936 20.9968C474.096 20.047 473.442 18.9367 472.978 17.6557L471.097 18.337C471.642 19.8411 472.421 21.1729 473.438 22.322L474.936 20.9968ZM472.978 17.6557C472.522 16.3981 472.281 14.8738 472.281 13.0618H470.281C470.281 15.044 470.544 16.8094 471.097 18.337L472.978 17.6557ZM472.281 13.0618C472.281 10.3838 472.933 8.21931 474.179 6.5049L472.56 5.32957C471.02 7.4498 470.281 10.0484 470.281 13.0618H472.281ZM474.178 6.50641C475.464 4.74189 477.258 3.39846 479.604 2.49043L478.882 0.625294C476.222 1.65476 474.1 3.21758 472.561 5.32806L474.178 6.50641ZM479.601 2.4914C481.988 1.57498 484.768 1.10474 487.961 1.10474V-0.895264C484.575 -0.895264 481.543 -0.396759 478.884 0.624323L479.601 2.4914ZM487.961 1.10474C490.774 1.10474 493.275 1.41962 495.471 2.03627L496.012 0.110699C493.607 -0.564316 490.92 -0.895264 487.961 -0.895264V1.10474ZM495.474 2.03688C497.755 2.67168 499.785 3.39208 501.567 4.19518L502.389 2.37171C500.498 1.51986 498.37 0.76696 496.01 0.110088L495.474 2.03688ZM501.048 2.91469L497.385 12.1481L499.244 12.8856L502.907 3.65221L501.048 2.91469ZM498.731 11.6075C496.789 10.7194 494.872 10.014 492.979 9.49398L492.449 11.4225C494.23 11.9116 496.046 12.5786 497.899 13.4262L498.731 11.6075ZM492.989 9.49673C491.081 8.9517 489.282 8.67114 487.598 8.67114V10.6711C489.062 10.6711 490.674 10.9153 492.44 11.4198L492.989 9.49673ZM487.598 8.67114C486.494 8.67114 485.51 8.8105 484.689 9.13429L485.422 10.9951C485.932 10.7942 486.644 10.6711 487.598 10.6711V8.67114ZM484.704 9.12837C483.933 9.41749 483.273 9.84597 482.806 10.4577L484.397 11.6698C484.577 11.4338 484.885 11.1963 485.406 11.001L484.704 9.12837ZM482.788 10.4825C482.358 11.0841 482.148 11.7738 482.148 12.5168H484.148C484.148 12.1701 484.24 11.891 484.416 11.645L482.788 10.4825ZM482.148 12.5168C482.148 13.4893 482.531 14.3467 483.215 15.0572L484.655 13.6699C484.29 13.2905 484.148 12.9168 484.148 12.5168H482.148ZM483.228 15.0706C483.883 15.7256 484.89 16.3774 486.171 17.0383L487.088 15.261C485.866 14.6302 485.077 14.0913 484.642 13.6564L483.228 15.0706ZM486.188 17.0469C487.47 17.6776 489.203 18.4988 491.386 19.5093L492.226 17.6943C490.049 16.6866 488.332 15.873 487.071 15.2524L486.188 17.0469ZM491.397 19.5142C493.505 20.4601 495.275 21.4745 496.717 22.5515L497.914 20.949C496.329 19.7655 494.426 18.681 492.215 17.6894L491.397 19.5142ZM496.724 22.5566C498.119 23.5791 499.161 24.8011 499.873 26.2238L501.661 25.3294C500.799 23.6037 499.54 22.1414 497.907 20.9438L496.724 22.5566ZM499.88 26.2376C500.593 27.6116 500.978 29.37 500.978 31.5588H502.978C502.978 29.1461 502.555 27.0497 501.654 25.3156L499.88 26.2376Z" fill="url(#paint0_linear_336_9185)" mask="url(#path-1-outside-1_336_9185)"/>
</g>
<defs>
<linearGradient id="paint0_linear_336_9185" x1="-3.00057" y1="-20.9987" x2="504.999" y2="-20.9987" gradientUnits="userSpaceOnUse">
<stop stop-color="#012F07"/>
<stop offset="1" stop-color="#59A52C"/>
</linearGradient>
</defs>
</svg>
