<svg width="351" height="33" viewBox="0 0 351 33" fill="none" xmlns="http://www.w3.org/2000/svg">
<path d="M0.733333 16.5C0.733333 18.8564 2.64358 20.7667 5 20.7667C7.35642 20.7667 9.26667 18.8564 9.26667 16.5C9.26667 14.1436 7.35642 12.2333 5 12.2333C2.64358 12.2333 0.733333 14.1436 0.733333 16.5ZM60 17.3C60.4418 17.3 60.8 16.9418 60.8 16.5C60.8 16.0582 60.4418 15.7 60 15.7V17.3ZM5 17.3H60V15.7H5V17.3Z" fill="#02440A"/>
<path d="M75.7305 26H72.1562V8.86719H81.9766V11.8438H75.7305V16.2617H81.543V19.2266H75.7305V26ZM96.9531 19.4258C96.9531 20.5195 96.8047 21.4883 96.5078 22.332C96.2188 23.1758 95.793 23.8906 95.2305 24.4766C94.6758 25.0547 94.0039 25.4922 93.2148 25.7891C92.4336 26.0859 91.5508 26.2344 90.5664 26.2344C89.6445 26.2344 88.7969 26.0859 88.0234 25.7891C87.2578 25.4922 86.5898 25.0547 86.0195 24.4766C85.457 23.8906 85.0195 23.1758 84.707 22.332C84.4023 21.4883 84.25 20.5195 84.25 19.4258C84.25 17.9727 84.5078 16.7422 85.0234 15.7344C85.5391 14.7266 86.2734 13.9609 87.2266 13.4375C88.1797 12.9141 89.3164 12.6523 90.6367 12.6523C91.8633 12.6523 92.9492 12.9141 93.8945 13.4375C94.8477 13.9609 95.5938 14.7266 96.1328 15.7344C96.6797 16.7422 96.9531 17.9727 96.9531 19.4258ZM87.8945 19.4258C87.8945 20.2852 87.9883 21.0078 88.1758 21.5938C88.3633 22.1797 88.6562 22.6211 89.0547 22.918C89.4531 23.2148 89.9727 23.3633 90.6133 23.3633C91.2461 23.3633 91.7578 23.2148 92.1484 22.918C92.5469 22.6211 92.8359 22.1797 93.0156 21.5938C93.2031 21.0078 93.2969 20.2852 93.2969 19.4258C93.2969 18.5586 93.2031 17.8398 93.0156 17.2695C92.8359 16.6914 92.5469 16.2578 92.1484 15.9688C91.75 15.6797 91.2305 15.5352 90.5898 15.5352C89.6445 15.5352 88.957 15.8594 88.5273 16.5078C88.1055 17.1562 87.8945 18.1289 87.8945 19.4258ZM107.219 12.6523C107.398 12.6523 107.605 12.6641 107.84 12.6875C108.082 12.7031 108.277 12.7266 108.426 12.7578L108.156 16.1094C108.039 16.0703 107.871 16.043 107.652 16.0273C107.441 16.0039 107.258 15.9922 107.102 15.9922C106.641 15.9922 106.191 16.0508 105.754 16.168C105.324 16.2852 104.938 16.4766 104.594 16.7422C104.25 17 103.977 17.3438 103.773 17.7734C103.578 18.1953 103.48 18.7148 103.48 19.332V26H99.9062V12.8984H102.613L103.141 15.1016H103.316C103.574 14.6562 103.895 14.25 104.277 13.8828C104.668 13.5078 105.109 13.2109 105.602 12.9922C106.102 12.7656 106.641 12.6523 107.219 12.6523ZM114.637 31.7656C112.809 31.7656 111.41 31.4453 110.441 30.8047C109.48 30.1719 109 29.2812 109 28.1328C109 27.3438 109.246 26.6836 109.738 26.1523C110.23 25.6211 110.953 25.2422 111.906 25.0156C111.539 24.8594 111.219 24.6055 110.945 24.2539C110.672 23.8945 110.535 23.5156 110.535 23.1172C110.535 22.6172 110.68 22.2031 110.969 21.875C111.258 21.5391 111.676 21.2109 112.223 20.8906C111.535 20.5938 110.988 20.1172 110.582 19.4609C110.184 18.8047 109.984 18.0312 109.984 17.1406C109.984 16.1875 110.191 15.3789 110.605 14.7148C111.027 14.043 111.637 13.5312 112.434 13.1797C113.238 12.8281 114.215 12.6523 115.363 12.6523C115.605 12.6523 115.887 12.668 116.207 12.6992C116.527 12.7305 116.82 12.7656 117.086 12.8047C117.359 12.8438 117.543 12.875 117.637 12.8984H122.207V14.7148L120.156 15.2422C120.344 15.5312 120.484 15.8398 120.578 16.168C120.672 16.4961 120.719 16.8438 120.719 17.2109C120.719 18.6172 120.227 19.7148 119.242 20.5039C118.266 21.2852 116.906 21.6758 115.164 21.6758C114.75 21.6523 114.359 21.6211 113.992 21.582C113.812 21.7227 113.676 21.8711 113.582 22.0273C113.488 22.1836 113.441 22.3477 113.441 22.5195C113.441 22.6914 113.512 22.8359 113.652 22.9531C113.801 23.0625 114.02 23.1484 114.309 23.2109C114.605 23.2656 114.973 23.293 115.41 23.293H117.637C119.074 23.293 120.168 23.6016 120.918 24.2188C121.676 24.8359 122.055 25.7422 122.055 26.9375C122.055 28.4688 121.414 29.6562 120.133 30.5C118.859 31.3438 117.027 31.7656 114.637 31.7656ZM114.789 29.4336C115.641 29.4336 116.371 29.3516 116.98 29.1875C117.598 29.0312 118.07 28.8047 118.398 28.5078C118.727 28.2188 118.891 27.8711 118.891 27.4648C118.891 27.1367 118.793 26.875 118.598 26.6797C118.41 26.4922 118.121 26.3594 117.73 26.2812C117.348 26.2031 116.855 26.1641 116.254 26.1641H114.402C113.965 26.1641 113.57 26.2344 113.219 26.375C112.875 26.5156 112.602 26.7109 112.398 26.9609C112.195 27.2188 112.094 27.5156 112.094 27.8516C112.094 28.3438 112.328 28.7305 112.797 29.0117C113.273 29.293 113.938 29.4336 114.789 29.4336ZM115.363 19.4961C116.035 19.4961 116.527 19.2891 116.84 18.875C117.152 18.4609 117.309 17.8984 117.309 17.1875C117.309 16.3984 117.145 15.8086 116.816 15.418C116.496 15.0195 116.012 14.8203 115.363 14.8203C114.707 14.8203 114.215 15.0195 113.887 15.418C113.559 15.8086 113.395 16.3984 113.395 17.1875C113.395 17.8984 113.555 18.4609 113.875 18.875C114.203 19.2891 114.699 19.4961 115.363 19.4961ZM136.281 19.4258C136.281 20.5195 136.133 21.4883 135.836 22.332C135.547 23.1758 135.121 23.8906 134.559 24.4766C134.004 25.0547 133.332 25.4922 132.543 25.7891C131.762 26.0859 130.879 26.2344 129.895 26.2344C128.973 26.2344 128.125 26.0859 127.352 25.7891C126.586 25.4922 125.918 25.0547 125.348 24.4766C124.785 23.8906 124.348 23.1758 124.035 22.332C123.73 21.4883 123.578 20.5195 123.578 19.4258C123.578 17.9727 123.836 16.7422 124.352 15.7344C124.867 14.7266 125.602 13.9609 126.555 13.4375C127.508 12.9141 128.645 12.6523 129.965 12.6523C131.191 12.6523 132.277 12.9141 133.223 13.4375C134.176 13.9609 134.922 14.7266 135.461 15.7344C136.008 16.7422 136.281 17.9727 136.281 19.4258ZM127.223 19.4258C127.223 20.2852 127.316 21.0078 127.504 21.5938C127.691 22.1797 127.984 22.6211 128.383 22.918C128.781 23.2148 129.301 23.3633 129.941 23.3633C130.574 23.3633 131.086 23.2148 131.477 22.918C131.875 22.6211 132.164 22.1797 132.344 21.5938C132.531 21.0078 132.625 20.2852 132.625 19.4258C132.625 18.5586 132.531 17.8398 132.344 17.2695C132.164 16.6914 131.875 16.2578 131.477 15.9688C131.078 15.6797 130.559 15.5352 129.918 15.5352C128.973 15.5352 128.285 15.8594 127.855 16.5078C127.434 17.1562 127.223 18.1289 127.223 19.4258ZM144.754 23.3867C145.145 23.3867 145.523 23.3477 145.891 23.2695C146.266 23.1914 146.637 23.0938 147.004 22.9766V25.6367C146.621 25.8086 146.145 25.9492 145.574 26.0586C145.012 26.1758 144.395 26.2344 143.723 26.2344C142.941 26.2344 142.238 26.1094 141.613 25.8594C140.996 25.6016 140.508 25.1602 140.148 24.5352C139.797 23.9023 139.621 23.0234 139.621 21.8984V15.582H137.91V14.0703L139.879 12.875L140.91 10.1094H143.195V12.8984H146.863V15.582H143.195V21.8984C143.195 22.3984 143.336 22.7734 143.617 23.0234C143.906 23.2656 144.285 23.3867 144.754 23.3867ZM163.188 12.6523C164.664 12.6523 165.855 13.2266 166.762 14.375C167.676 15.5234 168.133 17.207 168.133 19.4258C168.133 20.9102 167.918 22.1602 167.488 23.1758C167.059 24.1836 166.465 24.9453 165.707 25.4609C164.949 25.9766 164.078 26.2344 163.094 26.2344C162.461 26.2344 161.918 26.1562 161.465 26C161.012 25.8359 160.625 25.6289 160.305 25.3789C159.984 25.1211 159.707 24.8477 159.473 24.5586H159.285C159.348 24.8711 159.395 25.1914 159.426 25.5195C159.457 25.8477 159.473 26.168 159.473 26.4805V31.7656H155.898V12.8984H158.805L159.309 14.5977H159.473C159.707 14.2461 159.992 13.9219 160.328 13.625C160.664 13.3281 161.066 13.0938 161.535 12.9219C162.012 12.7422 162.562 12.6523 163.188 12.6523ZM162.039 15.5117C161.414 15.5117 160.918 15.6406 160.551 15.8984C160.184 16.1562 159.914 16.543 159.742 17.0586C159.578 17.5742 159.488 18.2266 159.473 19.0156V19.4023C159.473 20.2461 159.551 20.9609 159.707 21.5469C159.871 22.1328 160.141 22.5781 160.516 22.8828C160.898 23.1875 161.422 23.3398 162.086 23.3398C162.633 23.3398 163.082 23.1875 163.434 22.8828C163.785 22.5781 164.047 22.1328 164.219 21.5469C164.398 20.9531 164.488 20.2305 164.488 19.3789C164.488 18.0977 164.289 17.1328 163.891 16.4844C163.492 15.8359 162.875 15.5117 162.039 15.5117ZM176.453 12.6289C178.211 12.6289 179.559 13.0117 180.496 13.7773C181.434 14.543 181.902 15.707 181.902 17.2695V26H179.406L178.715 24.2188H178.621C178.246 24.6875 177.863 25.0703 177.473 25.3672C177.082 25.6641 176.633 25.8828 176.125 26.0234C175.617 26.1641 175 26.2344 174.273 26.2344C173.5 26.2344 172.805 26.0859 172.188 25.7891C171.578 25.4922 171.098 25.0391 170.746 24.4297C170.395 23.8125 170.219 23.0312 170.219 22.0859C170.219 20.6953 170.707 19.6719 171.684 19.0156C172.66 18.3516 174.125 17.9844 176.078 17.9141L178.352 17.8438V17.2695C178.352 16.582 178.172 16.0781 177.812 15.7578C177.453 15.4375 176.953 15.2773 176.312 15.2773C175.68 15.2773 175.059 15.3672 174.449 15.5469C173.84 15.7266 173.23 15.9531 172.621 16.2266L171.438 13.8125C172.133 13.4453 172.91 13.1562 173.77 12.9453C174.637 12.7344 175.531 12.6289 176.453 12.6289ZM178.352 19.9297L176.969 19.9766C175.812 20.0078 175.008 20.2148 174.555 20.5977C174.109 20.9805 173.887 21.4844 173.887 22.1094C173.887 22.6562 174.047 23.0469 174.367 23.2812C174.688 23.5078 175.105 23.6211 175.621 23.6211C176.387 23.6211 177.031 23.3945 177.555 22.9414C178.086 22.4883 178.352 21.8438 178.352 21.0078V19.9297ZM194.734 22.1094C194.734 23 194.523 23.7539 194.102 24.3711C193.688 24.9805 193.066 25.4453 192.238 25.7656C191.41 26.0781 190.379 26.2344 189.145 26.2344C188.23 26.2344 187.445 26.1758 186.789 26.0586C186.141 25.9414 185.484 25.7461 184.82 25.4727V22.5195C185.531 22.8398 186.293 23.1055 187.105 23.3164C187.926 23.5195 188.645 23.6211 189.262 23.6211C189.957 23.6211 190.453 23.5195 190.75 23.3164C191.055 23.1055 191.207 22.832 191.207 22.4961C191.207 22.2773 191.145 22.082 191.02 21.9102C190.902 21.7305 190.645 21.5312 190.246 21.3125C189.848 21.0859 189.223 20.793 188.371 20.4336C187.551 20.0898 186.875 19.7422 186.344 19.3906C185.82 19.0391 185.43 18.625 185.172 18.1484C184.922 17.6641 184.797 17.0508 184.797 16.3086C184.797 15.0977 185.266 14.1875 186.203 13.5781C187.148 12.9609 188.41 12.6523 189.988 12.6523C190.801 12.6523 191.574 12.7344 192.309 12.8984C193.051 13.0625 193.812 13.3242 194.594 13.6836L193.516 16.2617C192.867 15.9805 192.254 15.75 191.676 15.5703C191.105 15.3906 190.523 15.3008 189.93 15.3008C189.406 15.3008 189.012 15.3711 188.746 15.5117C188.48 15.6523 188.348 15.8672 188.348 16.1562C188.348 16.3672 188.414 16.5547 188.547 16.7188C188.688 16.8828 188.953 17.0664 189.344 17.2695C189.742 17.4648 190.324 17.7188 191.09 18.0312C191.832 18.3359 192.477 18.6562 193.023 18.9922C193.57 19.3203 193.992 19.7305 194.289 20.2227C194.586 20.707 194.734 21.3359 194.734 22.1094ZM206.664 22.1094C206.664 23 206.453 23.7539 206.031 24.3711C205.617 24.9805 204.996 25.4453 204.168 25.7656C203.34 26.0781 202.309 26.2344 201.074 26.2344C200.16 26.2344 199.375 26.1758 198.719 26.0586C198.07 25.9414 197.414 25.7461 196.75 25.4727V22.5195C197.461 22.8398 198.223 23.1055 199.035 23.3164C199.855 23.5195 200.574 23.6211 201.191 23.6211C201.887 23.6211 202.383 23.5195 202.68 23.3164C202.984 23.1055 203.137 22.832 203.137 22.4961C203.137 22.2773 203.074 22.082 202.949 21.9102C202.832 21.7305 202.574 21.5312 202.176 21.3125C201.777 21.0859 201.152 20.793 200.301 20.4336C199.48 20.0898 198.805 19.7422 198.273 19.3906C197.75 19.0391 197.359 18.625 197.102 18.1484C196.852 17.6641 196.727 17.0508 196.727 16.3086C196.727 15.0977 197.195 14.1875 198.133 13.5781C199.078 12.9609 200.34 12.6523 201.918 12.6523C202.73 12.6523 203.504 12.7344 204.238 12.8984C204.98 13.0625 205.742 13.3242 206.523 13.6836L205.445 16.2617C204.797 15.9805 204.184 15.75 203.605 15.5703C203.035 15.3906 202.453 15.3008 201.859 15.3008C201.336 15.3008 200.941 15.3711 200.676 15.5117C200.41 15.6523 200.277 15.8672 200.277 16.1562C200.277 16.3672 200.344 16.5547 200.477 16.7188C200.617 16.8828 200.883 17.0664 201.273 17.2695C201.672 17.4648 202.254 17.7188 203.02 18.0312C203.762 18.3359 204.406 18.6562 204.953 18.9922C205.5 19.3203 205.922 19.7305 206.219 20.2227C206.516 20.707 206.664 21.3359 206.664 22.1094ZM220.223 26L219.215 21.418C219.16 21.1445 219.07 20.7422 218.945 20.2109C218.82 19.6719 218.684 19.0977 218.535 18.4883C218.395 17.8711 218.262 17.3008 218.137 16.7773C218.02 16.2539 217.934 15.8711 217.879 15.6289H217.773C217.719 15.8711 217.633 16.2539 217.516 16.7773C217.398 17.3008 217.266 17.8711 217.117 18.4883C216.977 19.1055 216.844 19.6875 216.719 20.2344C216.594 20.7734 216.5 21.1836 216.438 21.4648L215.383 26H211.539L207.812 12.8984H211.375L212.887 18.6992C212.988 19.1055 213.086 19.5898 213.18 20.1523C213.273 20.707 213.355 21.2461 213.426 21.7695C213.504 22.2852 213.562 22.6953 213.602 23H213.695C213.711 22.7734 213.742 22.4727 213.789 22.0977C213.844 21.7227 213.902 21.3359 213.965 20.9375C214.035 20.5312 214.098 20.168 214.152 19.8477C214.215 19.5195 214.262 19.2969 214.293 19.1797L215.91 12.8984H219.848L221.383 19.1797C221.438 19.4062 221.508 19.7656 221.594 20.2578C221.688 20.75 221.77 21.2578 221.84 21.7812C221.91 22.2969 221.949 22.7031 221.957 23H222.051C222.082 22.7344 222.137 22.3398 222.215 21.8164C222.293 21.293 222.383 20.7461 222.484 20.1758C222.594 19.5977 222.703 19.1055 222.812 18.6992L224.383 12.8984H227.887L224.113 26H220.223ZM241.914 19.4258C241.914 20.5195 241.766 21.4883 241.469 22.332C241.18 23.1758 240.754 23.8906 240.191 24.4766C239.637 25.0547 238.965 25.4922 238.176 25.7891C237.395 26.0859 236.512 26.2344 235.527 26.2344C234.605 26.2344 233.758 26.0859 232.984 25.7891C232.219 25.4922 231.551 25.0547 230.98 24.4766C230.418 23.8906 229.98 23.1758 229.668 22.332C229.363 21.4883 229.211 20.5195 229.211 19.4258C229.211 17.9727 229.469 16.7422 229.984 15.7344C230.5 14.7266 231.234 13.9609 232.188 13.4375C233.141 12.9141 234.277 12.6523 235.598 12.6523C236.824 12.6523 237.91 12.9141 238.855 13.4375C239.809 13.9609 240.555 14.7266 241.094 15.7344C241.641 16.7422 241.914 17.9727 241.914 19.4258ZM232.855 19.4258C232.855 20.2852 232.949 21.0078 233.137 21.5938C233.324 22.1797 233.617 22.6211 234.016 22.918C234.414 23.2148 234.934 23.3633 235.574 23.3633C236.207 23.3633 236.719 23.2148 237.109 22.918C237.508 22.6211 237.797 22.1797 237.977 21.5938C238.164 21.0078 238.258 20.2852 238.258 19.4258C238.258 18.5586 238.164 17.8398 237.977 17.2695C237.797 16.6914 237.508 16.2578 237.109 15.9688C236.711 15.6797 236.191 15.5352 235.551 15.5352C234.605 15.5352 233.918 15.8594 233.488 16.5078C233.066 17.1562 232.855 18.1289 232.855 19.4258ZM252.18 12.6523C252.359 12.6523 252.566 12.6641 252.801 12.6875C253.043 12.7031 253.238 12.7266 253.387 12.7578L253.117 16.1094C253 16.0703 252.832 16.043 252.613 16.0273C252.402 16.0039 252.219 15.9922 252.062 15.9922C251.602 15.9922 251.152 16.0508 250.715 16.168C250.285 16.2852 249.898 16.4766 249.555 16.7422C249.211 17 248.938 17.3438 248.734 17.7734C248.539 18.1953 248.441 18.7148 248.441 19.332V26H244.867V12.8984H247.574L248.102 15.1016H248.277C248.535 14.6562 248.855 14.25 249.238 13.8828C249.629 13.5078 250.07 13.2109 250.562 12.9922C251.062 12.7656 251.602 12.6523 252.18 12.6523ZM259.914 26.2344C258.453 26.2344 257.262 25.6641 256.34 24.5234C255.426 23.375 254.969 21.6914 254.969 19.4727C254.969 17.2305 255.434 15.5352 256.363 14.3867C257.293 13.2305 258.508 12.6523 260.008 12.6523C260.633 12.6523 261.184 12.7383 261.66 12.9102C262.137 13.082 262.547 13.3125 262.891 13.6016C263.242 13.8906 263.539 14.2148 263.781 14.5742H263.898C263.852 14.3242 263.793 13.957 263.723 13.4727C263.66 12.9805 263.629 12.4766 263.629 11.9609V7.76562H267.215V26H264.473L263.781 24.3008H263.629C263.402 24.6602 263.117 24.9883 262.773 25.2852C262.438 25.5742 262.035 25.8047 261.566 25.9766C261.098 26.1484 260.547 26.2344 259.914 26.2344ZM261.168 23.3867C262.145 23.3867 262.832 23.0977 263.23 22.5195C263.637 21.9336 263.852 21.0547 263.875 19.8828V19.4961C263.875 18.2227 263.68 17.25 263.289 16.5781C262.898 15.8984 262.172 15.5586 261.109 15.5586C260.32 15.5586 259.703 15.8984 259.258 16.5781C258.812 17.2578 258.59 18.2383 258.59 19.5195C258.59 20.8008 258.812 21.7656 259.258 22.4141C259.711 23.0625 260.348 23.3867 261.168 23.3867ZM272.312 20.3164V19.4492C272.312 18.918 272.387 18.4492 272.535 18.043C272.684 17.6289 272.922 17.2383 273.25 16.8711C273.578 16.4961 274.012 16.1133 274.551 15.7227C275.035 15.3789 275.422 15.0703 275.711 14.7969C276.008 14.5234 276.223 14.2539 276.355 13.9883C276.496 13.7148 276.566 13.4062 276.566 13.0625C276.566 12.5547 276.379 12.168 276.004 11.9023C275.629 11.6367 275.105 11.5039 274.434 11.5039C273.762 11.5039 273.094 11.6094 272.43 11.8203C271.773 12.0312 271.105 12.3086 270.426 12.6523L269.148 10.0859C269.93 9.64844 270.777 9.29688 271.691 9.03125C272.605 8.75781 273.605 8.62109 274.691 8.62109C276.363 8.62109 277.656 9.02344 278.57 9.82812C279.492 10.625 279.953 11.6406 279.953 12.875C279.953 13.5312 279.848 14.1016 279.637 14.5859C279.434 15.0625 279.121 15.5078 278.699 15.9219C278.285 16.3281 277.766 16.7578 277.141 17.2109C276.672 17.5547 276.312 17.8438 276.062 18.0781C275.812 18.3125 275.641 18.5469 275.547 18.7812C275.461 19.0078 275.418 19.2852 275.418 19.6133V20.3164H272.312ZM271.938 24.3242C271.938 23.5898 272.137 23.0742 272.535 22.7773C272.941 22.4805 273.43 22.332 274 22.332C274.555 22.332 275.031 22.4805 275.43 22.7773C275.836 23.0742 276.039 23.5898 276.039 24.3242C276.039 25.0273 275.836 25.5352 275.43 25.8477C275.031 26.1602 274.555 26.3164 274 26.3164C273.43 26.3164 272.941 26.1602 272.535 25.8477C272.137 25.5352 271.938 25.0273 271.938 24.3242Z" fill="black"/>
<path d="M291 15.7C290.558 15.7 290.2 16.0582 290.2 16.5C290.2 16.9418 290.558 17.3 291 17.3V15.7ZM341.733 16.5C341.733 18.8564 343.644 20.7667 346 20.7667C348.356 20.7667 350.267 18.8564 350.267 16.5C350.267 14.1436 348.356 12.2333 346 12.2333C343.644 12.2333 341.733 14.1436 341.733 16.5ZM291 17.3H346V15.7H291V17.3Z" fill="#02440A"/>
</svg>
