<svg width="206" height="33" viewBox="0 0 206 33" fill="none" xmlns="http://www.w3.org/2000/svg">
<path d="M0.733333 16.5C0.733333 18.8564 2.64358 20.7667 5 20.7667C7.35642 20.7667 9.26667 18.8564 9.26667 16.5C9.26667 14.1436 7.35642 12.2333 5 12.2333C2.64358 12.2333 0.733333 14.1436 0.733333 16.5ZM60 17.3C60.4418 17.3 60.8 16.9418 60.8 16.5C60.8 16.0582 60.4418 15.7 60 15.7V17.3ZM5 17.3H60V15.7H5V17.3Z" fill="#02440A"/>
<path d="M72.1562 26V8.86719H75.7891V23H82.7383V26H72.1562ZM97.3516 19.4258C97.3516 20.5195 97.2031 21.4883 96.9062 22.332C96.6172 23.1758 96.1914 23.8906 95.6289 24.4766C95.0742 25.0547 94.4023 25.4922 93.6133 25.7891C92.832 26.0859 91.9492 26.2344 90.9648 26.2344C90.043 26.2344 89.1953 26.0859 88.4219 25.7891C87.6562 25.4922 86.9883 25.0547 86.418 24.4766C85.8555 23.8906 85.418 23.1758 85.1055 22.332C84.8008 21.4883 84.6484 20.5195 84.6484 19.4258C84.6484 17.9727 84.9062 16.7422 85.4219 15.7344C85.9375 14.7266 86.6719 13.9609 87.625 13.4375C88.5781 12.9141 89.7148 12.6523 91.0352 12.6523C92.2617 12.6523 93.3477 12.9141 94.293 13.4375C95.2461 13.9609 95.9922 14.7266 96.5312 15.7344C97.0781 16.7422 97.3516 17.9727 97.3516 19.4258ZM88.293 19.4258C88.293 20.2852 88.3867 21.0078 88.5742 21.5938C88.7617 22.1797 89.0547 22.6211 89.4531 22.918C89.8516 23.2148 90.3711 23.3633 91.0117 23.3633C91.6445 23.3633 92.1562 23.2148 92.5469 22.918C92.9453 22.6211 93.2344 22.1797 93.4141 21.5938C93.6016 21.0078 93.6953 20.2852 93.6953 19.4258C93.6953 18.5586 93.6016 17.8398 93.4141 17.2695C93.2344 16.6914 92.9453 16.2578 92.5469 15.9688C92.1484 15.6797 91.6289 15.5352 90.9883 15.5352C90.043 15.5352 89.3555 15.8594 88.9258 16.5078C88.5039 17.1562 88.293 18.1289 88.293 19.4258ZM104.137 31.7656C102.309 31.7656 100.91 31.4453 99.9414 30.8047C98.9805 30.1719 98.5 29.2812 98.5 28.1328C98.5 27.3438 98.7461 26.6836 99.2383 26.1523C99.7305 25.6211 100.453 25.2422 101.406 25.0156C101.039 24.8594 100.719 24.6055 100.445 24.2539C100.172 23.8945 100.035 23.5156 100.035 23.1172C100.035 22.6172 100.18 22.2031 100.469 21.875C100.758 21.5391 101.176 21.2109 101.723 20.8906C101.035 20.5938 100.488 20.1172 100.082 19.4609C99.6836 18.8047 99.4844 18.0312 99.4844 17.1406C99.4844 16.1875 99.6914 15.3789 100.105 14.7148C100.527 14.043 101.137 13.5312 101.934 13.1797C102.738 12.8281 103.715 12.6523 104.863 12.6523C105.105 12.6523 105.387 12.668 105.707 12.6992C106.027 12.7305 106.32 12.7656 106.586 12.8047C106.859 12.8438 107.043 12.875 107.137 12.8984H111.707V14.7148L109.656 15.2422C109.844 15.5312 109.984 15.8398 110.078 16.168C110.172 16.4961 110.219 16.8438 110.219 17.2109C110.219 18.6172 109.727 19.7148 108.742 20.5039C107.766 21.2852 106.406 21.6758 104.664 21.6758C104.25 21.6523 103.859 21.6211 103.492 21.582C103.312 21.7227 103.176 21.8711 103.082 22.0273C102.988 22.1836 102.941 22.3477 102.941 22.5195C102.941 22.6914 103.012 22.8359 103.152 22.9531C103.301 23.0625 103.52 23.1484 103.809 23.2109C104.105 23.2656 104.473 23.293 104.91 23.293H107.137C108.574 23.293 109.668 23.6016 110.418 24.2188C111.176 24.8359 111.555 25.7422 111.555 26.9375C111.555 28.4688 110.914 29.6562 109.633 30.5C108.359 31.3438 106.527 31.7656 104.137 31.7656ZM104.289 29.4336C105.141 29.4336 105.871 29.3516 106.48 29.1875C107.098 29.0312 107.57 28.8047 107.898 28.5078C108.227 28.2188 108.391 27.8711 108.391 27.4648C108.391 27.1367 108.293 26.875 108.098 26.6797C107.91 26.4922 107.621 26.3594 107.23 26.2812C106.848 26.2031 106.355 26.1641 105.754 26.1641H103.902C103.465 26.1641 103.07 26.2344 102.719 26.375C102.375 26.5156 102.102 26.7109 101.898 26.9609C101.695 27.2188 101.594 27.5156 101.594 27.8516C101.594 28.3438 101.828 28.7305 102.297 29.0117C102.773 29.293 103.438 29.4336 104.289 29.4336ZM104.863 19.4961C105.535 19.4961 106.027 19.2891 106.34 18.875C106.652 18.4609 106.809 17.8984 106.809 17.1875C106.809 16.3984 106.645 15.8086 106.316 15.418C105.996 15.0195 105.512 14.8203 104.863 14.8203C104.207 14.8203 103.715 15.0195 103.387 15.418C103.059 15.8086 102.895 16.3984 102.895 17.1875C102.895 17.8984 103.055 18.4609 103.375 18.875C103.703 19.2891 104.199 19.4961 104.863 19.4961ZM117.449 12.8984V26H113.875V12.8984H117.449ZM115.668 7.76562C116.199 7.76562 116.656 7.89063 117.039 8.14062C117.422 8.38281 117.613 8.83984 117.613 9.51172C117.613 10.1758 117.422 10.6367 117.039 10.8945C116.656 11.1445 116.199 11.2695 115.668 11.2695C115.129 11.2695 114.668 11.1445 114.285 10.8945C113.91 10.6367 113.723 10.1758 113.723 9.51172C113.723 8.83984 113.91 8.38281 114.285 8.14062C114.668 7.89063 115.129 7.76562 115.668 7.76562ZM128.652 12.6523C130.051 12.6523 131.176 13.0352 132.027 13.8008C132.879 14.5586 133.305 15.7773 133.305 17.457V26H129.73V18.3477C129.73 17.4102 129.559 16.7031 129.215 16.2266C128.879 15.75 128.348 15.5117 127.621 15.5117C126.527 15.5117 125.781 15.8828 125.383 16.625C124.984 17.3672 124.785 18.4375 124.785 19.8359V26H121.211V12.8984H123.941L124.422 14.5742H124.621C124.902 14.1211 125.25 13.7539 125.664 13.4727C126.086 13.1914 126.551 12.9844 127.059 12.8516C127.574 12.7188 128.105 12.6523 128.652 12.6523Z" fill="black"/>
<path d="M146 15.7C145.558 15.7 145.2 16.0582 145.2 16.5C145.2 16.9418 145.558 17.3 146 17.3V15.7ZM196.733 16.5C196.733 18.8564 198.644 20.7667 201 20.7667C203.356 20.7667 205.267 18.8564 205.267 16.5C205.267 14.1436 203.356 12.2333 201 12.2333C198.644 12.2333 196.733 14.1436 196.733 16.5ZM146 17.3H201V15.7H146V17.3Z" fill="#02440A"/>
</svg>
